0
SECTION
2
HEADER
9
$INSUNITS
70
4
0
ENDSEC
0
SECTION
2
TABLES
0
TABLE
2
LAYER
70
2
0
LAYER
2
CUT
70
0
62
7
6
CONTINUOUS
0
LAYER
2
BEND
70
0
62
1
6
DASHED
0
ENDTAB
0
ENDSEC
0
SECTION
2
ENTITIES
0
LINE
8
CUT
10
43.8226
20
134.7924
30
0
11
43.8226
21
133.7924
31
0
0
LINE
8
CUT
10
44.6726
20
134.7924
30
0
11
44.6333
21
134.9708
31
0
0
LINE
8
CUT
10
44.6333
20
134.9708
30
0
11
44.5260
21
135.1135
31
0
0
LINE
8
CUT
10
44.5260
20
135.1135
30
0
11
44.3770
21
135.1972
31
0
0
LINE
8
CUT
10
44.3770
20
135.1972
30
0
11
44.2476
21
135.2174
31
0
0
LINE
8
CUT
10
44.2476
20
135.2174
30
0
11
44.0691
21
135.1781
31
0
0
LINE
8
CUT
10
44.0691
20
135.1781
30
0
11
43.9265
21
135.0709
31
0
0
LINE
8
CUT
10
43.9265
20
135.0709
30
0
11
43.8428
21
134.9218
31
0
0
LINE
8
CUT
10
43.8428
20
134.9218
30
0
11
43.8226
21
134.7924
31
0
0
LINE
8
CUT
10
44.6726
20
130.8561
30
0
11
44.6726
21
134.7924
31
0
0
LINE
8
CUT
10
44.3226
20
130.8561
30
0
11
44.6726
21
130.8561
31
0
0
LINE
8
CUT
10
44.3226
20
130.8561
30
0
11
44.3226
21
121.9924
31
0
0
LINE
8
CUT
10
44.3226
20
121.9924
30
0
11
41.3226
21
121.9924
31
0
0
LINE
8
CUT
10
41.3226
20
121.9924
30
0
11
37.3226
21
125.9924
31
0
0
LINE
8
CUT
10
37.3226
20
130.8561
30
0
11
37.3226
21
125.9924
31
0
0
LINE
8
CUT
10
37.3226
20
130.8561
30
0
11
36.9726
21
130.8561
31
0
0
LINE
8
CUT
10
36.9726
20
130.8561
30
0
11
36.9726
21
134.7924
31
0
0
LINE
8
CUT
10
37.8226
20
134.7924
30
0
11
37.7833
21
134.9708
31
0
0
LINE
8
CUT
10
37.7833
20
134.9708
30
0
11
37.6760
21
135.1135
31
0
0
LINE
8
CUT
10
37.6760
20
135.1135
30
0
11
37.5270
21
135.1972
31
0
0
LINE
8
CUT
10
37.5270
20
135.1972
30
0
11
37.3976
21
135.2174
31
0
0
LINE
8
CUT
10
37.3976
20
135.2174
30
0
11
37.2191
21
135.1781
31
0
0
LINE
8
CUT
10
37.2191
20
135.1781
30
0
11
37.0765
21
135.0709
31
0
0
LINE
8
CUT
10
37.0765
20
135.0709
30
0
11
36.9928
21
134.9218
31
0
0
LINE
8
CUT
10
36.9928
20
134.9218
30
0
11
36.9726
21
134.7924
31
0
0
LINE
8
CUT
10
37.8226
20
134.7924
30
0
11
37.8226
21
133.7924
31
0
0
LINE
8
BEND
10
43.8226
20
133.7924
30
0
11
37.8226
21
133.7924
31
0
0
LINE
8
CUT
10
72.0476
20
134.7924
30
0
11
72.0476
21
133.7924
31
0
0
LINE
8
CUT
10
72.8976
20
134.7924
30
0
11
72.8583
21
134.9708
31
0
0
LINE
8
CUT
10
72.8583
20
134.9708
30
0
11
72.7510
21
135.1135
31
0
0
LINE
8
CUT
10
72.7510
20
135.1135
30
0
11
72.6020
21
135.1972
31
0
0
LINE
8
CUT
10
72.6020
20
135.1972
30
0
11
72.4726
21
135.2174
31
0
0
LINE
8
CUT
10
72.4726
20
135.2174
30
0
11
72.2941
21
135.1781
31
0
0
LINE
8
CUT
10
72.2941
20
135.1781
30
0
11
72.1515
21
135.0709
31
0
0
LINE
8
CUT
10
72.1515
20
135.0709
30
0
11
72.0678
21
134.9218
31
0
0
LINE
8
CUT
10
72.0678
20
134.9218
30
0
11
72.0476
21
134.7924
31
0
0
LINE
8
CUT
10
72.8976
20
130.8561
30
0
11
72.8976
21
134.7924
31
0
0
LINE
8
CUT
10
72.5476
20
130.8561
30
0
11
72.8976
21
130.8561
31
0
0
LINE
8
CUT
10
72.5476
20
130.8561
30
0
11
72.5476
21
125.9924
31
0
0
LINE
8
CUT
10
72.5476
20
125.9924
30
0
11
68.5476
21
121.9924
31
0
0
LINE
8
CUT
10
65.5476
20
121.9924
30
0
11
68.5476
21
121.9924
31
0
0
LINE
8
CUT
10
65.5476
20
130.8561
30
0
11
65.5476
21
121.9924
31
0
0
LINE
8
CUT
10
65.5476
20
130.8561
30
0
11
65.1976
21
130.8561
31
0
0
LINE
8
CUT
10
65.1976
20
130.8561
30
0
11
65.1976
21
134.7924
31
0
0
LINE
8
CUT
10
66.0476
20
134.7924
30
0
11
66.0083
21
134.9708
31
0
0
LINE
8
CUT
10
66.0083
20
134.9708
30
0
11
65.9010
21
135.1135
31
0
0
LINE
8
CUT
10
65.9010
20
135.1135
30
0
11
65.7520
21
135.1972
31
0
0
LINE
8
CUT
10
65.7520
20
135.1972
30
0
11
65.6226
21
135.2174
31
0
0
LINE
8
CUT
10
65.6226
20
135.2174
30
0
11
65.4441
21
135.1781
31
0
0
LINE
8
CUT
10
65.4441
20
135.1781
30
0
11
65.3015
21
135.0709
31
0
0
LINE
8
CUT
10
65.3015
20
135.0709
30
0
11
65.2178
21
134.9218
31
0
0
LINE
8
CUT
10
65.2178
20
134.9218
30
0
11
65.1976
21
134.7924
31
0
0
LINE
8
CUT
10
66.0476
20
134.7924
30
0
11
66.0476
21
133.7924
31
0
0
LINE
8
BEND
10
66.0476
20
133.7924
30
0
11
72.0476
21
133.7924
31
0
0
LINE
8
CUT
10
54.2226
20
150.9924
30
0
11
54.2620
21
150.7072
31
0
0
LINE
8
CUT
10
54.2620
20
150.7072
30
0
11
54.3779
21
150.4429
31
0
0
LINE
8
CUT
10
54.3779
20
150.4429
30
0
11
54.5573
21
150.2237
31
0
0
LINE
8
CUT
10
54.5573
20
150.2237
30
0
11
54.7842
21
150.0629
31
0
0
LINE
8
CUT
10
54.7842
20
150.0629
30
0
11
55.0406
21
149.9683
31
0
0
LINE
8
CUT
10
55.0406
20
149.9683
30
0
11
55.3081
21
149.9430
31
0
0
LINE
8
CUT
10
55.3081
20
149.9430
30
0
11
55.5689
21
149.9851
31
0
0
LINE
8
CUT
10
55.5689
20
149.9851
30
0
11
55.7976
21
150.0831
31
0
0
LINE
8
CUT
10
55.7976
20
150.0831
30
0
11
56.0248
21
150.2598
31
0
0
LINE
8
CUT
10
56.0248
20
150.2598
30
0
11
56.1958
21
150.4923
31
0
0
LINE
8
CUT
10
56.1958
20
150.4923
30
0
11
56.2959
21
150.7573
31
0
0
LINE
8
CUT
10
56.2959
20
150.7573
30
0
11
56.3217
21
151.0342
31
0
0
LINE
8
CUT
10
56.3217
20
151.0342
30
0
11
56.2754
21
151.3035
31
0
0
LINE
8
CUT
10
56.2754
20
151.3035
30
0
11
56.1636
21
151.5478
31
0
0
LINE
8
CUT
10
56.1636
20
151.5478
30
0
11
55.9968
21
151.7527
31
0
0
LINE
8
CUT
10
55.9968
20
151.7527
30
0
11
55.7976
21
151.9017
31
0
0
LINE
8
CUT
10
55.7976
20
151.9017
30
0
11
55.5309
21
152.0101
31
0
0
LINE
8
CUT
10
55.5309
20
152.0101
30
0
11
55.2440
21
152.0420
31
0
0
LINE
8
CUT
10
55.2440
20
152.0420
30
0
11
54.9645
21
151.9962
31
0
0
LINE
8
CUT
10
54.9645
20
151.9962
30
0
11
54.7118
21
151.8801
31
0
0
LINE
8
CUT
10
54.7118
20
151.8801
30
0
11
54.5017
21
151.7053
31
0
0
LINE
8
CUT
10
54.5017
20
151.7053
30
0
11
54.3460
21
151.4863
31
0
0
LINE
8
CUT
10
54.3460
20
151.4863
30
0
11
54.2520
21
151.2394
31
0
0
LINE
8
CUT
10
54.2520
20
151.2394
30
0
11
54.2226
21
150.9924
31
0
0
LINE
8
CUT
10
44.2226
20
150.9924
30
0
11
44.2620
21
150.7072
31
0
0
LINE
8
CUT
10
44.2620
20
150.7072
30
0
11
44.3779
21
150.4429
31
0
0
LINE
8
CUT
10
44.3779
20
150.4429
30
0
11
44.5573
21
150.2237
31
0
0
LINE
8
CUT
10
44.5573
20
150.2237
30
0
11
44.7842
21
150.0629
31
0
0
LINE
8
CUT
10
44.7842
20
150.0629
30
0
11
45.0406
21
149.9683
31
0
0
LINE
8
CUT
10
45.0406
20
149.9683
30
0
11
45.3081
21
149.9430
31
0
0
LINE
8
CUT
10
45.3081
20
149.9430
30
0
11
45.5689
21
149.9851
31
0
0
LINE
8
CUT
10
45.5689
20
149.9851
30
0
11
45.7976
21
150.0831
31
0
0
LINE
8
CUT
10
45.7976
20
150.0831
30
0
11
46.0248
21
150.2598
31
0
0
LINE
8
CUT
10
46.0248
20
150.2598
30
0
11
46.1958
21
150.4923
31
0
0
LINE
8
CUT
10
46.1958
20
150.4923
30
0
11
46.2959
21
150.7573
31
0
0
LINE
8
CUT
10
46.2959
20
150.7573
30
0
11
46.3217
21
151.0342
31
0
0
LINE
8
CUT
10
46.3217
20
151.0342
30
0
11
46.2754
21
151.3035
31
0
0
LINE
8
CUT
10
46.2754
20
151.3035
30
0
11
46.1636
21
151.5478
31
0
0
LINE
8
CUT
10
46.1636
20
151.5478
30
0
11
45.9968
21
151.7527
31
0
0
LINE
8
CUT
10
45.9968
20
151.7527
30
0
11
45.7976
21
151.9017
31
0
0
LINE
8
CUT
10
45.7976
20
151.9017
30
0
11
45.5309
21
152.0101
31
0
0
LINE
8
CUT
10
45.5309
20
152.0101
30
0
11
45.2440
21
152.0420
31
0
0
LINE
8
CUT
10
45.2440
20
152.0420
30
0
11
44.9645
21
151.9962
31
0
0
LINE
8
CUT
10
44.9645
20
151.9962
30
0
11
44.7118
21
151.8801
31
0
0
LINE
8
CUT
10
44.7118
20
151.8801
30
0
11
44.5017
21
151.7053
31
0
0
LINE
8
CUT
10
44.5017
20
151.7053
30
0
11
44.3460
21
151.4863
31
0
0
LINE
8
CUT
10
44.3460
20
151.4863
30
0
11
44.2520
21
151.2394
31
0
0
LINE
8
CUT
10
44.2520
20
151.2394
30
0
11
44.2226
21
150.9924
31
0
0
LINE
8
CUT
10
31.1726
20
145.3924
30
0
11
31.2122
21
145.0385
31
0
0
LINE
8
CUT
10
31.2122
20
145.0385
30
0
11
31.3289
21
144.7026
31
0
0
LINE
8
CUT
10
31.3289
20
144.7026
30
0
11
31.5139
21
144.4047
31
0
0
LINE
8
CUT
10
31.5139
20
144.4047
30
0
11
31.7558
21
144.1570
31
0
0
LINE
8
CUT
10
31.7558
20
144.1570
30
0
11
32.0418
21
143.9690
31
0
0
LINE
8
CUT
10
32.0418
20
143.9690
30
0
11
32.3574
21
143.8472
31
0
0
LINE
8
CUT
10
32.3574
20
143.8472
30
0
11
32.6878
21
143.7946
31
0
0
LINE
8
CUT
10
32.6878
20
143.7946
30
0
11
33.0182
21
143.8114
31
0
0
LINE
8
CUT
10
33.0182
20
143.8114
30
0
11
33.3346
21
143.8943
31
0
0
LINE
8
CUT
10
33.3346
20
143.8943
30
0
11
33.5726
21
144.0068
31
0
0
LINE
8
CUT
10
33.5726
20
144.0068
30
0
11
33.8593
21
144.2181
31
0
0
LINE
8
CUT
10
33.8593
20
144.2181
30
0
11
34.0918
21
144.4871
31
0
0
LINE
8
CUT
10
34.0918
20
144.4871
30
0
11
34.2573
21
144.7962
31
0
0
LINE
8
CUT
10
34.2573
20
144.7962
30
0
11
34.3508
21
145.1296
31
0
0
LINE
8
CUT
10
34.3508
20
145.1296
30
0
11
34.3706
21
145.4712
31
0
0
LINE
8
CUT
10
34.3706
20
145.4712
30
0
11
34.3183
21
145.8054
31
0
0
LINE
8
CUT
10
34.3183
20
145.8054
30
0
11
34.1986
21
146.1179
31
0
0
LINE
8
CUT
10
34.1986
20
146.1179
30
0
11
34.0190
21
146.3957
31
0
0
LINE
8
CUT
10
34.0190
20
146.3957
30
0
11
33.7889
21
146.6281
31
0
0
LINE
8
CUT
10
33.7889
20
146.6281
30
0
11
33.5726
21
146.7780
31
0
0
LINE
8
CUT
10
33.5726
20
146.7780
30
0
11
33.2462
21
146.9207
31
0
0
LINE
8
CUT
10
33.2462
20
146.9207
30
0
11
32.8970
21
146.9876
31
0
0
LINE
8
CUT
10
32.8970
20
146.9876
30
0
11
32.5465
21
146.9763
31
0
0
LINE
8
CUT
10
32.5465
20
146.9763
30
0
11
32.2110
21
146.8906
31
0
0
LINE
8
CUT
10
32.2110
20
146.8906
30
0
11
31.9053
21
146.7370
31
0
0
LINE
8
CUT
10
31.9053
20
146.7370
30
0
11
31.6420
21
146.5245
31
0
0
LINE
8
CUT
10
31.6420
20
146.5245
30
0
11
31.4313
21
146.2647
31
0
0
LINE
8
CUT
10
31.4313
20
146.2647
30
0
11
31.2805
21
145.9702
31
0
0
LINE
8
CUT
10
31.2805
20
145.9702
30
0
11
31.1942
21
145.6547
31
0
0
LINE
8
CUT
10
31.1942
20
145.6547
30
0
11
31.1726
21
145.3924
31
0
0
LINE
8
CUT
10
31.1726
20
156.5924
30
0
11
31.2122
21
156.2385
31
0
0
LINE
8
CUT
10
31.2122
20
156.2385
30
0
11
31.3289
21
155.9026
31
0
0
LINE
8
CUT
10
31.3289
20
155.9026
30
0
11
31.5139
21
155.6047
31
0
0
LINE
8
CUT
10
31.5139
20
155.6047
30
0
11
31.7558
21
155.3570
31
0
0
LINE
8
CUT
10
31.7558
20
155.3570
30
0
11
32.0418
21
155.1690
31
0
0
LINE
8
CUT
10
32.0418
20
155.1690
30
0
11
32.3574
21
155.0472
31
0
0
LINE
8
CUT
10
32.3574
20
155.0472
30
0
11
32.6878
21
154.9946
31
0
0
LINE
8
CUT
10
32.6878
20
154.9946
30
0
11
33.0182
21
155.0114
31
0
0
LINE
8
CUT
10
33.0182
20
155.0114
30
0
11
33.3346
21
155.0943
31
0
0
LINE
8
CUT
10
33.3346
20
155.0943
30
0
11
33.5726
21
155.2068
31
0
0
LINE
8
CUT
10
33.5726
20
155.2068
30
0
11
33.8593
21
155.4181
31
0
0
LINE
8
CUT
10
33.8593
20
155.4181
30
0
11
34.0918
21
155.6871
31
0
0
LINE
8
CUT
10
34.0918
20
155.6871
30
0
11
34.2573
21
155.9962
31
0
0
LINE
8
CUT
10
34.2573
20
155.9962
30
0
11
34.3508
21
156.3296
31
0
0
LINE
8
CUT
10
34.3508
20
156.3296
30
0
11
34.3706
21
156.6712
31
0
0
LINE
8
CUT
10
34.3706
20
156.6712
30
0
11
34.3183
21
157.0054
31
0
0
LINE
8
CUT
10
34.3183
20
157.0054
30
0
11
34.1986
21
157.3179
31
0
0
LINE
8
CUT
10
34.1986
20
157.3179
30
0
11
34.0190
21
157.5957
31
0
0
LINE
8
CUT
10
34.0190
20
157.5957
30
0
11
33.7889
21
157.8281
31
0
0
LINE
8
CUT
10
33.7889
20
157.8281
30
0
11
33.5726
21
157.9780
31
0
0
LINE
8
CUT
10
33.5726
20
157.9780
30
0
11
33.2462
21
158.1207
31
0
0
LINE
8
CUT
10
33.2462
20
158.1207
30
0
11
32.8970
21
158.1876
31
0
0
LINE
8
CUT
10
32.8970
20
158.1876
30
0
11
32.5465
21
158.1763
31
0
0
LINE
8
CUT
10
32.5465
20
158.1763
30
0
11
32.2110
21
158.0906
31
0
0
LINE
8
CUT
10
32.2110
20
158.0906
30
0
11
31.9053
21
157.9370
31
0
0
LINE
8
CUT
10
31.9053
20
157.9370
30
0
11
31.6420
21
157.7245
31
0
0
LINE
8
CUT
10
31.6420
20
157.7245
30
0
11
31.4313
21
157.4647
31
0
0
LINE
8
CUT
10
31.4313
20
157.4647
30
0
11
31.2805
21
157.1702
31
0
0
LINE
8
CUT
10
31.2805
20
157.1702
30
0
11
31.1942
21
156.8547
31
0
0
LINE
8
CUT
10
31.1942
20
156.8547
30
0
11
31.1726
21
156.5924
31
0
0
LINE
8
CUT
10
66.1726
20
156.5924
30
0
11
66.2122
21
156.2385
31
0
0
LINE
8
CUT
10
66.2122
20
156.2385
30
0
11
66.3289
21
155.9026
31
0
0
LINE
8
CUT
10
66.3289
20
155.9026
30
0
11
66.5139
21
155.6047
31
0
0
LINE
8
CUT
10
66.5139
20
155.6047
30
0
11
66.7558
21
155.3570
31
0
0
LINE
8
CUT
10
66.7558
20
155.3570
30
0
11
67.0418
21
155.1690
31
0
0
LINE
8
CUT
10
67.0418
20
155.1690
30
0
11
67.3574
21
155.0472
31
0
0
LINE
8
CUT
10
67.3574
20
155.0472
30
0
11
67.6878
21
154.9946
31
0
0
LINE
8
CUT
10
67.6878
20
154.9946
30
0
11
68.0182
21
155.0114
31
0
0
LINE
8
CUT
10
68.0182
20
155.0114
30
0
11
68.3346
21
155.0943
31
0
0
LINE
8
CUT
10
68.3346
20
155.0943
30
0
11
68.5726
21
155.2068
31
0
0
LINE
8
CUT
10
68.5726
20
155.2068
30
0
11
68.8593
21
155.4181
31
0
0
LINE
8
CUT
10
68.8593
20
155.4181
30
0
11
69.0918
21
155.6871
31
0
0
LINE
8
CUT
10
69.0918
20
155.6871
30
0
11
69.2573
21
155.9962
31
0
0
LINE
8
CUT
10
69.2573
20
155.9962
30
0
11
69.3508
21
156.3296
31
0
0
LINE
8
CUT
10
69.3508
20
156.3296
30
0
11
69.3706
21
156.6712
31
0
0
LINE
8
CUT
10
69.3706
20
156.6712
30
0
11
69.3183
21
157.0054
31
0
0
LINE
8
CUT
10
69.3183
20
157.0054
30
0
11
69.1986
21
157.3179
31
0
0
LINE
8
CUT
10
69.1986
20
157.3179
30
0
11
69.0190
21
157.5957
31
0
0
LINE
8
CUT
10
69.0190
20
157.5957
30
0
11
68.7889
21
157.8281
31
0
0
LINE
8
CUT
10
68.7889
20
157.8281
30
0
11
68.5726
21
157.9780
31
0
0
LINE
8
CUT
10
68.5726
20
157.9780
30
0
11
68.2462
21
158.1207
31
0
0
LINE
8
CUT
10
68.2462
20
158.1207
30
0
11
67.8970
21
158.1876
31
0
0
LINE
8
CUT
10
67.8970
20
158.1876
30
0
11
67.5465
21
158.1763
31
0
0
LINE
8
CUT
10
67.5465
20
158.1763
30
0
11
67.2110
21
158.0906
31
0
0
LINE
8
CUT
10
67.2110
20
158.0906
30
0
11
66.9053
21
157.9370
31
0
0
LINE
8
CUT
10
66.9053
20
157.9370
30
0
11
66.6420
21
157.7245
31
0
0
LINE
8
CUT
10
66.6420
20
157.7245
30
0
11
66.4313
21
157.4647
31
0
0
LINE
8
CUT
10
66.4313
20
157.4647
30
0
11
66.2805
21
157.1702
31
0
0
LINE
8
CUT
10
66.2805
20
157.1702
30
0
11
66.1942
21
156.8547
31
0
0
LINE
8
CUT
10
66.1942
20
156.8547
30
0
11
66.1726
21
156.5924
31
0
0
LINE
8
CUT
10
66.1726
20
145.3924
30
0
11
66.2122
21
145.0385
31
0
0
LINE
8
CUT
10
66.2122
20
145.0385
30
0
11
66.3289
21
144.7026
31
0
0
LINE
8
CUT
10
66.3289
20
144.7026
30
0
11
66.5139
21
144.4047
31
0
0
LINE
8
CUT
10
66.5139
20
144.4047
30
0
11
66.7558
21
144.1570
31
0
0
LINE
8
CUT
10
66.7558
20
144.1570
30
0
11
67.0418
21
143.9690
31
0
0
LINE
8
CUT
10
67.0418
20
143.9690
30
0
11
67.3574
21
143.8472
31
0
0
LINE
8
CUT
10
67.3574
20
143.8472
30
0
11
67.6878
21
143.7946
31
0
0
LINE
8
CUT
10
67.6878
20
143.7946
30
0
11
68.0182
21
143.8114
31
0
0
LINE
8
CUT
10
68.0182
20
143.8114
30
0
11
68.3346
21
143.8943
31
0
0
LINE
8
CUT
10
68.3346
20
143.8943
30
0
11
68.5726
21
144.0068
31
0
0
LINE
8
CUT
10
68.5726
20
144.0068
30
0
11
68.8593
21
144.2181
31
0
0
LINE
8
CUT
10
68.8593
20
144.2181
30
0
11
69.0918
21
144.4871
31
0
0
LINE
8
CUT
10
69.0918
20
144.4871
30
0
11
69.2573
21
144.7962
31
0
0
LINE
8
CUT
10
69.2573
20
144.7962
30
0
11
69.3508
21
145.1296
31
0
0
LINE
8
CUT
10
69.3508
20
145.1296
30
0
11
69.3706
21
145.4712
31
0
0
LINE
8
CUT
10
69.3706
20
145.4712
30
0
11
69.3183
21
145.8054
31
0
0
LINE
8
CUT
10
69.3183
20
145.8054
30
0
11
69.1986
21
146.1179
31
0
0
LINE
8
CUT
10
69.1986
20
146.1179
30
0
11
69.0190
21
146.3957
31
0
0
LINE
8
CUT
10
69.0190
20
146.3957
30
0
11
68.7889
21
146.6281
31
0
0
LINE
8
CUT
10
68.7889
20
146.6281
30
0
11
68.5726
21
146.7780
31
0
0
LINE
8
CUT
10
68.5726
20
146.7780
30
0
11
68.2462
21
146.9207
31
0
0
LINE
8
CUT
10
68.2462
20
146.9207
30
0
11
67.8970
21
146.9876
31
0
0
LINE
8
CUT
10
67.8970
20
146.9876
30
0
11
67.5465
21
146.9763
31
0
0
LINE
8
CUT
10
67.5465
20
146.9763
30
0
11
67.2110
21
146.8906
31
0
0
LINE
8
CUT
10
67.2110
20
146.8906
30
0
11
66.9053
21
146.7370
31
0
0
LINE
8
CUT
10
66.9053
20
146.7370
30
0
11
66.6420
21
146.5245
31
0
0
LINE
8
CUT
10
66.6420
20
146.5245
30
0
11
66.4313
21
146.2647
31
0
0
LINE
8
CUT
10
66.4313
20
146.2647
30
0
11
66.2805
21
145.9702
31
0
0
LINE
8
CUT
10
66.2805
20
145.9702
30
0
11
66.1942
21
145.6547
31
0
0
LINE
8
CUT
10
66.1942
20
145.6547
30
0
11
66.1726
21
145.3924
31
0
0
LINE
8
CUT
10
48.5226
20
163.0470
30
0
11
48.5622
21
162.6765
31
0
0
LINE
8
CUT
10
48.5622
20
162.6765
30
0
11
48.6790
21
162.3238
31
0
0
LINE
8
CUT
10
48.6790
20
162.3238
30
0
11
48.8647
21
162.0075
31
0
0
LINE
8
CUT
10
48.8647
20
162.0075
30
0
11
49.1091
21
161.7397
31
0
0
LINE
8
CUT
10
49.1091
20
161.7397
30
0
11
49.4000
21
161.5300
31
0
0
LINE
8
CUT
10
49.4000
20
161.5300
30
0
11
49.7240
21
161.3852
31
0
0
LINE
8
CUT
10
49.7240
20
161.3852
30
0
11
50.0669
21
161.3091
31
0
0
LINE
8
CUT
10
50.0669
20
161.3091
30
0
11
50.4146
21
161.3028
31
0
0
LINE
8
CUT
10
50.4146
20
161.3028
30
0
11
50.7531
21
161.3643
31
0
0
LINE
8
CUT
10
50.7531
20
161.3643
30
0
11
51.1476
21
161.5314
31
0
0
LINE
8
CUT
10
51.1476
20
161.5314
30
0
11
51.4486
21
161.7510
31
0
0
LINE
8
CUT
10
51.4486
20
161.7510
30
0
11
51.6956
21
162.0285
31
0
0
LINE
8
CUT
10
51.6956
20
162.0285
30
0
11
51.8767
21
162.3475
31
0
0
LINE
8
CUT
10
51.8767
20
162.3475
30
0
11
51.9864
21
162.6930
31
0
0
LINE
8
CUT
10
51.9864
20
162.6930
30
0
11
52.0226
21
163.0498
31
0
0
LINE
8
CUT
10
52.0226
20
163.0498
30
0
11
51.9860
21
163.4028
31
0
0
LINE
8
CUT
10
51.9860
20
163.4028
30
0
11
51.8804
21
163.7378
31
0
0
LINE
8
CUT
10
51.8804
20
163.7378
30
0
11
51.7121
21
164.0421
31
0
0
LINE
8
CUT
10
51.7121
20
164.0421
30
0
11
51.4896
21
164.3045
31
0
0
LINE
8
CUT
10
51.4896
20
164.3045
30
0
11
51.1476
21
164.5625
31
0
0
LINE
8
CUT
10
51.1476
20
164.5625
30
0
11
50.8069
21
164.7134
31
0
0
LINE
8
CUT
10
50.8069
20
164.7134
30
0
11
50.4431
21
164.7887
31
0
0
LINE
8
CUT
10
50.4431
20
164.7887
30
0
11
50.0763
21
164.7859
31
0
0
LINE
8
CUT
10
50.0763
20
164.7859
30
0
11
49.7222
21
164.7082
31
0
0
LINE
8
CUT
10
49.7222
20
164.7082
30
0
11
49.3951
21
164.5611
31
0
0
LINE
8
CUT
10
49.3951
20
164.5611
30
0
11
49.1077
21
164.3530
31
0
0
LINE
8
CUT
10
49.1077
20
164.3530
30
0
11
48.8703
21
164.0940
31
0
0
LINE
8
CUT
10
48.8703
20
164.0940
30
0
11
48.6910
21
163.7961
31
0
0
LINE
8
CUT
10
48.6910
20
163.7961
30
0
11
48.5750
21
163.4722
31
0
0
LINE
8
CUT
10
48.5750
20
163.4722
30
0
11
48.5226
21
163.0470
31
0
0
LINE
8
CUT
10
30.8726
20
63.7470
30
0
11
30.9122
21
63.3765
31
0
0
LINE
8
CUT
10
30.9122
20
63.3765
30
0
11
31.0290
21
63.0238
31
0
0
LINE
8
CUT
10
31.0290
20
63.0238
30
0
11
31.2147
21
62.7075
31
0
0
LINE
8
CUT
10
31.2147
20
62.7075
30
0
11
31.4591
21
62.4397
31
0
0
LINE
8
CUT
10
31.4591
20
62.4397
30
0
11
31.7500
21
62.2300
31
0
0
LINE
8
CUT
10
31.7500
20
62.2300
30
0
11
32.0740
21
62.0852
31
0
0
LINE
8
CUT
10
32.0740
20
62.0852
30
0
11
32.4169
21
62.0091
31
0
0
LINE
8
CUT
10
32.4169
20
62.0091
30
0
11
32.7646
21
62.0028
31
0
0
LINE
8
CUT
10
32.7646
20
62.0028
30
0
11
33.1031
21
62.0643
31
0
0
LINE
8
CUT
10
33.1031
20
62.0643
30
0
11
33.4976
21
62.2314
31
0
0
LINE
8
CUT
10
33.4976
20
62.2314
30
0
11
33.7986
21
62.4510
31
0
0
LINE
8
CUT
10
33.7986
20
62.4510
30
0
11
34.0456
21
62.7285
31
0
0
LINE
8
CUT
10
34.0456
20
62.7285
30
0
11
34.2267
21
63.0475
31
0
0
LINE
8
CUT
10
34.2267
20
63.0475
30
0
11
34.3364
21
63.3930
31
0
0
LINE
8
CUT
10
34.3364
20
63.3930
30
0
11
34.3726
21
63.7498
31
0
0
LINE
8
CUT
10
34.3726
20
63.7498
30
0
11
34.3360
21
64.1028
31
0
0
LINE
8
CUT
10
34.3360
20
64.1028
30
0
11
34.2304
21
64.4378
31
0
0
LINE
8
CUT
10
34.2304
20
64.4378
30
0
11
34.0621
21
64.7421
31
0
0
LINE
8
CUT
10
34.0621
20
64.7421
30
0
11
33.8396
21
65.0045
31
0
0
LINE
8
CUT
10
33.8396
20
65.0045
30
0
11
33.4976
21
65.2625
31
0
0
LINE
8
CUT
10
33.4976
20
65.2625
30
0
11
33.1569
21
65.4134
31
0
0
LINE
8
CUT
10
33.1569
20
65.4134
30
0
11
32.7931
21
65.4887
31
0
0
LINE
8
CUT
10
32.7931
20
65.4887
30
0
11
32.4263
21
65.4859
31
0
0
LINE
8
CUT
10
32.4263
20
65.4859
30
0
11
32.0722
21
65.4082
31
0
0
LINE
8
CUT
10
32.0722
20
65.4082
30
0
11
31.7451
21
65.2611
31
0
0
LINE
8
CUT
10
31.7451
20
65.2611
30
0
11
31.4577
21
65.0530
31
0
0
LINE
8
CUT
10
31.4577
20
65.0530
30
0
11
31.2203
21
64.7940
31
0
0
LINE
8
CUT
10
31.2203
20
64.7940
30
0
11
31.0410
21
64.4961
31
0
0
LINE
8
CUT
10
31.0410
20
64.4961
30
0
11
30.9250
21
64.1722
31
0
0
LINE
8
CUT
10
30.9250
20
64.1722
30
0
11
30.8726
21
63.7470
31
0
0
LINE
8
CUT
10
66.1726
20
63.7470
30
0
11
66.2122
21
63.3765
31
0
0
LINE
8
CUT
10
66.2122
20
63.3765
30
0
11
66.3290
21
63.0238
31
0
0
LINE
8
CUT
10
66.3290
20
63.0238
30
0
11
66.5147
21
62.7075
31
0
0
LINE
8
CUT
10
66.5147
20
62.7075
30
0
11
66.7591
21
62.4397
31
0
0
LINE
8
CUT
10
66.7591
20
62.4397
30
0
11
67.0500
21
62.2300
31
0
0
LINE
8
CUT
10
67.0500
20
62.2300
30
0
11
67.3740
21
62.0852
31
0
0
LINE
8
CUT
10
67.3740
20
62.0852
30
0
11
67.7169
21
62.0091
31
0
0
LINE
8
CUT
10
67.7169
20
62.0091
30
0
11
68.0646
21
62.0028
31
0
0
LINE
8
CUT
10
68.0646
20
62.0028
30
0
11
68.4031
21
62.0643
31
0
0
LINE
8
CUT
10
68.4031
20
62.0643
30
0
11
68.7976
21
62.2314
31
0
0
LINE
8
CUT
10
68.7976
20
62.2314
30
0
11
69.0986
21
62.4510
31
0
0
LINE
8
CUT
10
69.0986
20
62.4510
30
0
11
69.3456
21
62.7285
31
0
0
LINE
8
CUT
10
69.3456
20
62.7285
30
0
11
69.5267
21
63.0475
31
0
0
LINE
8
CUT
10
69.5267
20
63.0475
30
0
11
69.6364
21
63.3930
31
0
0
LINE
8
CUT
10
69.6364
20
63.3930
30
0
11
69.6726
21
63.7498
31
0
0
LINE
8
CUT
10
69.6726
20
63.7498
30
0
11
69.6360
21
64.1028
31
0
0
LINE
8
CUT
10
69.6360
20
64.1028
30
0
11
69.5304
21
64.4378
31
0
0
LINE
8
CUT
10
69.5304
20
64.4378
30
0
11
69.3621
21
64.7421
31
0
0
LINE
8
CUT
10
69.3621
20
64.7421
30
0
11
69.1396
21
65.0045
31
0
0
LINE
8
CUT
10
69.1396
20
65.0045
30
0
11
68.7976
21
65.2625
31
0
0
LINE
8
CUT
10
68.7976
20
65.2625
30
0
11
68.4569
21
65.4134
31
0
0
LINE
8
CUT
10
68.4569
20
65.4134
30
0
11
68.0931
21
65.4887
31
0
0
LINE
8
CUT
10
68.0931
20
65.4887
30
0
11
67.7263
21
65.4859
31
0
0
LINE
8
CUT
10
67.7263
20
65.4859
30
0
11
67.3722
21
65.4082
31
0
0
LINE
8
CUT
10
67.3722
20
65.4082
30
0
11
67.0451
21
65.2611
31
0
0
LINE
8
CUT
10
67.0451
20
65.2611
30
0
11
66.7577
21
65.0530
31
0
0
LINE
8
CUT
10
66.7577
20
65.0530
30
0
11
66.5203
21
64.7940
31
0
0
LINE
8
CUT
10
66.5203
20
64.7940
30
0
11
66.3410
21
64.4961
31
0
0
LINE
8
CUT
10
66.3410
20
64.4961
30
0
11
66.2250
21
64.1722
31
0
0
LINE
8
CUT
10
66.2250
20
64.1722
30
0
11
66.1726
21
63.7470
31
0
0
LINE
8
CUT
10
23.0726
20
50.6680
30
0
11
23.2510
21
50.7073
31
0
0
LINE
8
CUT
10
23.2510
20
50.7073
30
0
11
23.3936
21
50.8145
31
0
0
LINE
8
CUT
10
23.3936
20
50.8145
30
0
11
23.4774
21
50.9636
31
0
0
LINE
8
CUT
10
23.4774
20
50.9636
30
0
11
23.4976
21
51.0930
31
0
0
LINE
8
CUT
10
23.4976
20
51.0930
30
0
11
23.4583
21
51.2714
31
0
0
LINE
8
CUT
10
23.4583
20
51.2714
30
0
11
23.3510
21
51.4141
31
0
0
LINE
8
CUT
10
23.3510
20
51.4141
30
0
11
23.2020
21
51.4978
31
0
0
LINE
8
CUT
10
23.2020
20
51.4978
30
0
11
23.0726
21
51.5180
31
0
0
LINE
8
CUT
10
23.0726
20
50.6680
30
0
11
22.0726
21
50.6680
31
0
0
LINE
8
BEND
10
22.0726
20
50.6680
30
0
11
22.0726
21
27.0799
31
0
0
LINE
8
BEND
10
22.0726
20
27.0799
30
0
11
78.4726
21
27.0799
31
0
0
LINE
8
BEND
10
78.4726
20
27.0799
30
0
11
78.4726
21
50.6680
31
0
0
LINE
8
CUT
10
77.4726
20
50.6680
30
0
11
78.4726
21
50.6680
31
0
0
LINE
8
CUT
10
77.4726
20
51.5180
30
0
11
77.2941
21
51.4787
31
0
0
LINE
8
CUT
10
77.2941
20
51.4787
30
0
11
77.1515
21
51.3715
31
0
0
LINE
8
CUT
10
77.1515
20
51.3715
30
0
11
77.0678
21
51.2224
31
0
0
LINE
8
CUT
10
77.0678
20
51.2224
30
0
11
77.0476
21
51.0930
31
0
0
LINE
8
CUT
10
77.0476
20
51.0930
30
0
11
77.0868
21
50.9146
31
0
0
LINE
8
CUT
10
77.0868
20
50.9146
30
0
11
77.1941
21
50.7720
31
0
0
LINE
8
CUT
10
77.1941
20
50.7720
30
0
11
77.3431
21
50.6882
31
0
0
LINE
8
CUT
10
77.3431
20
50.6882
30
0
11
77.4726
21
50.6680
31
0
0
LINE
8
CUT
10
80.2726
20
51.5180
30
0
11
77.4726
21
51.5180
31
0
0
LINE
8
CUT
10
80.2726
20
51.5180
30
0
11
80.2726
21
56.0470
31
0
0
LINE
8
CUT
10
80.2726
20
56.0470
30
0
11
82.7726
21
56.0470
31
0
0
LINE
8
CUT
10
82.7726
20
56.0470
30
0
11
82.7726
21
131.0470
31
0
0
LINE
8
CUT
10
81.7726
20
132.0470
30
0
11
82.7726
21
131.0470
31
0
0
LINE
8
CUT
10
81.7726
20
132.0470
30
0
11
78.7726
21
132.0470
31
0
0
LINE
8
CUT
10
78.7726
20
132.0470
30
0
11
72.7726
21
138.0470
31
0
0
LINE
8
CUT
10
72.7726
20
138.0470
30
0
11
72.7726
21
163.9924
31
0
0
LINE
8
CUT
10
72.7726
20
163.9924
30
0
11
72.7340
21
164.4720
31
0
0
LINE
8
CUT
10
72.7340
20
164.4720
30
0
11
72.6203
21
164.9359
31
0
0
LINE
8
CUT
10
72.6203
20
164.9359
30
0
11
72.4360
21
165.3730
31
0
0
LINE
8
CUT
10
72.4360
20
165.3730
30
0
11
72.1869
21
165.7731
31
0
0
LINE
8
CUT
10
72.1869
20
165.7731
30
0
11
71.8803
21
166.1272
31
0
0
LINE
8
CUT
10
71.8803
20
166.1272
30
0
11
71.5246
21
166.4276
31
0
0
LINE
8
CUT
10
71.5246
20
166.4276
30
0
11
71.1292
21
166.6681
31
0
0
LINE
8
CUT
10
71.1292
20
166.6681
30
0
11
70.7042
21
166.8441
31
0
0
LINE
8
CUT
10
70.7042
20
166.8441
30
0
11
70.2600
21
166.9525
31
0
0
LINE
8
CUT
10
70.2600
20
166.9525
30
0
11
69.7726
21
166.9924
31
0
0
LINE
8
CUT
10
69.7726
20
166.9924
30
0
11
30.7726
21
166.9924
31
0
0
LINE
8
CUT
10
30.7726
20
166.9924
30
0
11
30.2930
21
166.9538
31
0
0
LINE
8
CUT
10
30.2930
20
166.9538
30
0
11
29.8291
21
166.8402
31
0
0
LINE
8
CUT
10
29.8291
20
166.8402
30
0
11
29.3920
21
166.6558
31
0
0
LINE
8
CUT
10
29.3920
20
166.6558
30
0
11
28.9919
21
166.4067
31
0
0
LINE
8
CUT
10
28.9919
20
166.4067
30
0
11
28.6377
21
166.1001
31
0
0
LINE
8
CUT
10
28.6377
20
166.1001
30
0
11
28.3373
21
165.7444
31
0
0
LINE
8
CUT
10
28.3373
20
165.7444
30
0
11
28.0968
21
165.3490
31
0
0
LINE
8
CUT
10
28.0968
20
165.3490
30
0
11
27.9209
21
164.9240
31
0
0
LINE
8
CUT
10
27.9209
20
164.9240
30
0
11
27.8124
21
164.4798
31
0
0
LINE
8
CUT
10
27.8124
20
164.4798
30
0
11
27.7726
21
163.9924
31
0
0
LINE
8
CUT
10
27.7726
20
163.9924
30
0
11
27.7726
21
138.0470
31
0
0
LINE
8
CUT
10
27.7726
20
138.0470
30
0
11
21.7726
21
132.0470
31
0
0
LINE
8
CUT
10
18.7726
20
132.0470
30
0
11
21.7726
21
132.0470
31
0
0
LINE
8
CUT
10
17.7726
20
131.0470
30
0
11
18.7726
21
132.0470
31
0
0
LINE
8
CUT
10
17.7726
20
131.0470
30
0
11
17.7726
21
56.0470
31
0
0
LINE
8
CUT
10
17.7726
20
56.0470
30
0
11
20.2726
21
56.0470
31
0
0
LINE
8
CUT
10
20.2726
20
56.0470
30
0
11
20.2726
21
51.5180
31
0
0
LINE
8
CUT
10
20.2726
20
51.5180
30
0
11
23.0726
21
51.5180
31
0
0
LINE
8
CUT
10
32.6226
20
6.0885
30
0
11
32.2521
21
6.0488
31
0
0
LINE
8
CUT
10
32.2521
20
6.0488
30
0
11
31.8994
21
5.9321
31
0
0
LINE
8
CUT
10
31.8994
20
5.9321
30
0
11
31.5831
21
5.7463
31
0
0
LINE
8
CUT
10
31.5831
20
5.7463
30
0
11
31.3153
21
5.5019
31
0
0
LINE
8
CUT
10
31.3153
20
5.5019
30
0
11
31.1056
21
5.2110
31
0
0
LINE
8
CUT
10
31.1056
20
5.2110
30
0
11
30.9608
21
4.8871
31
0
0
LINE
8
CUT
10
30.9608
20
4.8871
30
0
11
30.8847
21
4.5441
31
0
0
LINE
8
CUT
10
30.8847
20
4.5441
30
0
11
30.8783
21
4.1965
31
0
0
LINE
8
CUT
10
30.8783
20
4.1965
30
0
11
30.9398
21
3.8579
31
0
0
LINE
8
CUT
10
30.9398
20
3.8579
30
0
11
31.1070
21
3.4635
31
0
0
LINE
8
CUT
10
31.1070
20
3.4635
30
0
11
31.3266
21
3.1625
31
0
0
LINE
8
CUT
10
31.3266
20
3.1625
30
0
11
31.6041
21
2.9154
31
0
0
LINE
8
CUT
10
31.6041
20
2.9154
30
0
11
31.9231
21
2.7344
31
0
0
LINE
8
CUT
10
31.9231
20
2.7344
30
0
11
32.2686
21
2.6247
31
0
0
LINE
8
CUT
10
32.2686
20
2.6247
30
0
11
32.6254
21
2.5885
31
0
0
LINE
8
CUT
10
32.6254
20
2.5885
30
0
11
32.9784
21
2.6250
31
0
0
LINE
8
CUT
10
32.9784
20
2.6250
30
0
11
33.3134
21
2.7306
31
0
0
LINE
8
CUT
10
33.3134
20
2.7306
30
0
11
33.6177
21
2.8989
31
0
0
LINE
8
CUT
10
33.6177
20
2.8989
30
0
11
33.8801
21
3.1215
31
0
0
LINE
8
CUT
10
33.8801
20
3.1215
30
0
11
34.1381
21
3.4635
31
0
0
LINE
8
CUT
10
34.1381
20
3.4635
30
0
11
34.2890
21
3.8042
31
0
0
LINE
8
CUT
10
34.2890
20
3.8042
30
0
11
34.3642
21
4.1680
31
0
0
LINE
8
CUT
10
34.3642
20
4.1680
30
0
11
34.3615
21
4.5348
31
0
0
LINE
8
CUT
10
34.3615
20
4.5348
30
0
11
34.2838
21
4.8889
31
0
0
LINE
8
CUT
10
34.2838
20
4.8889
30
0
11
34.1367
21
5.2159
31
0
0
LINE
8
CUT
10
34.1367
20
5.2159
30
0
11
33.9285
21
5.5034
31
0
0
LINE
8
CUT
10
33.9285
20
5.5034
30
0
11
33.6696
21
5.7407
31
0
0
LINE
8
CUT
10
33.6696
20
5.7407
30
0
11
33.3717
21
5.9200
31
0
0
LINE
8
CUT
10
33.3717
20
5.9200
30
0
11
33.0478
21
6.0361
31
0
0
LINE
8
CUT
10
33.0478
20
6.0361
30
0
11
32.6226
21
6.0885
31
0
0
LINE
8
CUT
10
67.9226
20
6.0885
30
0
11
67.5521
21
6.0488
31
0
0
LINE
8
CUT
10
67.5521
20
6.0488
30
0
11
67.1994
21
5.9321
31
0
0
LINE
8
CUT
10
67.1994
20
5.9321
30
0
11
66.8831
21
5.7463
31
0
0
LINE
8
CUT
10
66.8831
20
5.7463
30
0
11
66.6153
21
5.5019
31
0
0
LINE
8
CUT
10
66.6153
20
5.5019
30
0
11
66.4056
21
5.2110
31
0
0
LINE
8
CUT
10
66.4056
20
5.2110
30
0
11
66.2608
21
4.8871
31
0
0
LINE
8
CUT
10
66.2608
20
4.8871
30
0
11
66.1847
21
4.5441
31
0
0
LINE
8
CUT
10
66.1847
20
4.5441
30
0
11
66.1783
21
4.1965
31
0
0
LINE
8
CUT
10
66.1783
20
4.1965
30
0
11
66.2398
21
3.8579
31
0
0
LINE
8
CUT
10
66.2398
20
3.8579
30
0
11
66.4070
21
3.4635
31
0
0
LINE
8
CUT
10
66.4070
20
3.4635
30
0
11
66.6266
21
3.1625
31
0
0
LINE
8
CUT
10
66.6266
20
3.1625
30
0
11
66.9041
21
2.9154
31
0
0
LINE
8
CUT
10
66.9041
20
2.9154
30
0
11
67.2231
21
2.7344
31
0
0
LINE
8
CUT
10
67.2231
20
2.7344
30
0
11
67.5686
21
2.6247
31
0
0
LINE
8
CUT
10
67.5686
20
2.6247
30
0
11
67.9254
21
2.5885
31
0
0
LINE
8
CUT
10
67.9254
20
2.5885
30
0
11
68.2784
21
2.6250
31
0
0
LINE
8
CUT
10
68.2784
20
2.6250
30
0
11
68.6134
21
2.7306
31
0
0
LINE
8
CUT
10
68.6134
20
2.7306
30
0
11
68.9177
21
2.8989
31
0
0
LINE
8
CUT
10
68.9177
20
2.8989
30
0
11
69.1801
21
3.1215
31
0
0
LINE
8
CUT
10
69.1801
20
3.1215
30
0
11
69.4381
21
3.4635
31
0
0
LINE
8
CUT
10
69.4381
20
3.4635
30
0
11
69.5890
21
3.8042
31
0
0
LINE
8
CUT
10
69.5890
20
3.8042
30
0
11
69.6642
21
4.1680
31
0
0
LINE
8
CUT
10
69.6642
20
4.1680
30
0
11
69.6615
21
4.5348
31
0
0
LINE
8
CUT
10
69.6615
20
4.5348
30
0
11
69.5838
21
4.8889
31
0
0
LINE
8
CUT
10
69.5838
20
4.8889
30
0
11
69.4367
21
5.2159
31
0
0
LINE
8
CUT
10
69.4367
20
5.2159
30
0
11
69.2285
21
5.5034
31
0
0
LINE
8
CUT
10
69.2285
20
5.5034
30
0
11
68.9696
21
5.7407
31
0
0
LINE
8
CUT
10
68.9696
20
5.7407
30
0
11
68.6717
21
5.9200
31
0
0
LINE
8
CUT
10
68.6717
20
5.9200
30
0
11
68.3478
21
6.0361
31
0
0
LINE
8
CUT
10
68.3478
20
6.0361
30
0
11
67.9226
21
6.0885
31
0
0
LINE
8
CUT
10
78.9328
20
0.0000
30
0
11
21.6124
21
0.0000
31
0
0
LINE
8
CUT
10
78.9328
20
0.0000
30
0
11
79.3218
21
0.0382
31
0
0
LINE
8
CUT
10
79.3218
20
0.0382
30
0
11
79.6923
21
0.1498
31
0
0
LINE
8
CUT
10
79.6923
20
0.1498
30
0
11
80.0313
21
0.3287
31
0
0
LINE
8
CUT
10
80.0313
20
0.3287
30
0
11
80.3275
21
0.5665
31
0
0
LINE
8
CUT
10
80.3275
20
0.5665
30
0
11
80.5714
21
0.8533
31
0
0
LINE
8
CUT
10
80.5714
20
0.8533
30
0
11
80.6889
21
1.0429
31
0
0
LINE
8
CUT
10
80.6889
20
1.0429
30
0
11
80.7823
21
1.2390
31
0
0
LINE
8
CUT
10
83.7726
20
8.5068
30
0
11
80.7823
21
1.2390
31
0
0
LINE
8
CUT
10
84.5100
20
14.7801
30
0
11
83.7726
21
8.5068
31
0
0
LINE
8
CUT
10
84.5100
20
14.7801
30
0
11
84.5170
21
15.1765
31
0
0
LINE
8
CUT
10
84.5170
20
15.1765
30
0
11
84.4470
21
15.5622
31
0
0
LINE
8
CUT
10
84.4470
20
15.5622
30
0
11
84.3048
21
15.9233
31
0
0
LINE
8
CUT
10
84.3048
20
15.9233
30
0
11
84.0979
21
16.2471
31
0
0
LINE
8
CUT
10
84.0979
20
16.2471
30
0
11
83.8356
21
16.5232
31
0
0
LINE
8
CUT
10
83.8356
20
16.5232
30
0
11
83.5287
21
16.7427
31
0
0
LINE
8
CUT
10
83.5287
20
16.7427
30
0
11
83.1892
21
16.8996
31
0
0
LINE
8
CUT
10
83.1892
20
16.8996
30
0
11
82.8297
21
16.9900
31
0
0
LINE
8
CUT
10
82.8297
20
16.9900
30
0
11
82.6748
21
17.0078
31
0
0
LINE
8
CUT
10
82.6748
20
17.0078
30
0
11
82.5237
21
17.0136
31
0
0
LINE
8
CUT
10
82.5237
20
17.0136
30
0
11
80.2726
21
17.0136
31
0
0
LINE
8
CUT
10
80.2726
20
26.8425
30
0
11
80.2726
21
17.0136
31
0
0
LINE
8
CUT
10
80.2726
20
26.8425
30
0
11
79.4726
21
26.8425
31
0
0
LINE
8
CUT
10
79.4726
20
26.8425
30
0
11
78.4726
21
26.8425
31
0
0
LINE
8
BEND
10
22.0726
20
26.8425
30
0
11
78.4726
21
26.8425
31
0
0
LINE
8
CUT
10
22.0726
20
26.8425
30
0
11
21.0726
21
26.8425
31
0
0
LINE
8
CUT
10
21.0726
20
26.8425
30
0
11
20.2726
21
26.8425
31
0
0
LINE
8
CUT
10
20.2726
20
17.0136
30
0
11
20.2726
21
26.8425
31
0
0
LINE
8
CUT
10
18.0214
20
17.0136
30
0
11
20.2726
21
17.0136
31
0
0
LINE
8
CUT
10
18.0214
20
17.0136
30
0
11
17.6269
21
16.9743
31
0
0
LINE
8
CUT
10
17.6269
20
16.9743
30
0
11
17.2520
21
16.8596
31
0
0
LINE
8
CUT
10
17.2520
20
16.8596
30
0
11
16.9100
21
16.6763
31
0
0
LINE
8
CUT
10
16.9100
20
16.6763
30
0
11
16.6125
21
16.4330
31
0
0
LINE
8
CUT
10
16.6125
20
16.4330
30
0
11
16.3690
21
16.1403
31
0
0
LINE
8
CUT
10
16.3690
20
16.1403
30
0
11
16.1868
21
15.8098
31
0
0
LINE
8
CUT
10
16.1868
20
15.8098
30
0
11
16.0706
21
15.4543
31
0
0
LINE
8
CUT
10
16.0706
20
15.4543
30
0
11
16.0228
21
15.0868
31
0
0
LINE
8
CUT
10
16.0228
20
15.0868
30
0
11
16.0232
21
14.9308
31
0
0
LINE
8
CUT
10
16.0232
20
14.9308
30
0
11
16.0351
21
14.7801
31
0
0
LINE
8
CUT
10
16.0351
20
14.7801
30
0
11
16.7726
21
8.5068
31
0
0
LINE
8
CUT
10
19.7628
20
1.2390
30
0
11
16.7726
21
8.5068
31
0
0
LINE
8
CUT
10
19.7628
20
1.2390
30
0
11
19.9461
21
0.8938
31
0
0
LINE
8
CUT
10
19.9461
20
0.8938
30
0
11
20.1903
21
0.5936
31
0
0
LINE
8
CUT
10
20.1903
20
0.5936
30
0
11
20.4848
21
0.3482
31
0
0
LINE
8
CUT
10
20.4848
20
0.3482
30
0
11
20.8174
21
0.1648
31
0
0
LINE
8
CUT
10
20.8174
20
0.1648
30
0
11
21.1753
21
0.0483
31
0
0
LINE
8
CUT
10
21.1753
20
0.0483
30
0
11
21.3955
21
0.0118
31
0
0
LINE
8
CUT
10
21.3955
20
0.0118
30
0
11
21.6124
21
0.0000
31
0
0
LINE
8
CUT
10
22.0726
20
26.8425
30
0
11
22.0726
21
27.0799
31
0
0
LINE
8
CUT
10
78.4726
20
26.8425
30
0
11
78.4726
21
27.0799
31
0
0
LINE
8
CUT
10
6.7363
20
35.3766
30
0
11
7.7363
21
35.3766
31
0
0
LINE
8
CUT
10
6.7363
20
25.0766
30
0
11
6.7363
21
35.3766
31
0
0
LINE
8
CUT
10
6.7363
20
25.0766
30
0
11
7.7363
21
25.0766
31
0
0
LINE
8
CUT
10
7.7363
20
24.2266
30
0
11
7.9147
21
24.2659
31
0
0
LINE
8
CUT
10
7.9147
20
24.2659
30
0
11
8.0573
21
24.3731
31
0
0
LINE
8
CUT
10
8.0573
20
24.3731
30
0
11
8.1411
21
24.5222
31
0
0
LINE
8
CUT
10
8.1411
20
24.5222
30
0
11
8.1613
21
24.6516
31
0
0
LINE
8
CUT
10
8.1613
20
24.6516
30
0
11
8.1220
21
24.8300
31
0
0
LINE
8
CUT
10
8.1220
20
24.8300
30
0
11
8.0148
21
24.9727
31
0
0
LINE
8
CUT
10
8.0148
20
24.9727
30
0
11
7.8657
21
25.0564
31
0
0
LINE
8
CUT
10
7.8657
20
25.0564
30
0
11
7.7363
21
25.0766
31
0
0
LINE
8
CUT
10
7.7363
20
24.2266
30
0
11
6.7363
21
24.2266
31
0
0
LINE
8
BEND
10
6.7363
20
18.2266
30
0
11
6.7363
21
24.2266
31
0
0
LINE
8
CUT
10
6.7363
20
18.2266
30
0
11
18.3752
21
18.2266
31
0
0
LINE
8
CUT
10
18.3752
20
18.2266
30
0
11
19.9363
21
27.0799
31
0
0
LINE
8
BEND
10
19.9363
20
27.0799
30
0
11
19.9363
21
50.6680
31
0
0
LINE
8
CUT
10
6.7363
20
43.0470
30
0
11
19.9363
21
50.6680
31
0
0
LINE
8
BEND
10
6.7363
20
36.2266
30
0
11
6.7363
21
43.0470
31
0
0
LINE
8
CUT
10
7.7363
20
36.2266
30
0
11
6.7363
21
36.2266
31
0
0
LINE
8
CUT
10
7.7363
20
35.3766
30
0
11
7.9147
21
35.4159
31
0
0
LINE
8
CUT
10
7.9147
20
35.4159
30
0
11
8.0573
21
35.5231
31
0
0
LINE
8
CUT
10
8.0573
20
35.5231
30
0
11
8.1411
21
35.6722
31
0
0
LINE
8
CUT
10
8.1411
20
35.6722
30
0
11
8.1613
21
35.8016
31
0
0
LINE
8
CUT
10
8.1613
20
35.8016
30
0
11
8.1220
21
35.9800
31
0
0
LINE
8
CUT
10
8.1220
20
35.9800
30
0
11
8.0148
21
36.1227
31
0
0
LINE
8
CUT
10
8.0148
20
36.1227
30
0
11
7.8657
21
36.2064
31
0
0
LINE
8
CUT
10
7.8657
20
36.2064
30
0
11
7.7363
21
36.2266
31
0
0
LINE
8
CUT
10
13.6863
20
41.4924
30
0
11
13.7256
21
41.2528
31
0
0
LINE
8
CUT
10
13.7256
20
41.2528
30
0
11
13.8399
21
41.0376
31
0
0
LINE
8
CUT
10
13.8399
20
41.0376
30
0
11
14.0124
21
40.8737
31
0
0
LINE
8
CUT
10
14.0124
20
40.8737
30
0
11
14.2219
21
40.7737
31
0
0
LINE
8
CUT
10
14.2219
20
40.7737
30
0
11
14.4465
21
40.7425
31
0
0
LINE
8
CUT
10
14.4465
20
40.7425
30
0
11
14.6651
21
40.7781
31
0
0
LINE
8
CUT
10
14.6651
20
40.7781
30
0
11
14.8113
21
40.8429
31
0
0
LINE
8
CUT
10
14.8113
20
40.8429
30
0
11
14.9991
21
40.9967
31
0
0
LINE
8
CUT
10
14.9991
20
40.9967
30
0
11
15.1283
21
41.2033
31
0
0
LINE
8
CUT
10
15.1283
20
41.2033
30
0
11
15.1841
21
41.4347
31
0
0
LINE
8
CUT
10
15.1841
20
41.4347
30
0
11
15.1659
21
41.6661
31
0
0
LINE
8
CUT
10
15.1659
20
41.6661
30
0
11
15.0806
21
41.8762
31
0
0
LINE
8
CUT
10
15.0806
20
41.8762
30
0
11
14.9404
21
42.0477
31
0
0
LINE
8
CUT
10
14.9404
20
42.0477
30
0
11
14.8113
21
42.1419
31
0
0
LINE
8
CUT
10
14.8113
20
42.1419
30
0
11
14.5842
21
42.2277
31
0
0
LINE
8
CUT
10
14.5842
20
42.2277
30
0
11
14.3406
21
42.2363
31
0
0
LINE
8
CUT
10
14.3406
20
42.2363
30
0
11
14.1124
21
42.1688
31
0
0
LINE
8
CUT
10
14.1124
20
42.1688
30
0
11
13.9210
21
42.0374
31
0
0
LINE
8
CUT
10
13.9210
20
42.0374
30
0
11
13.7817
21
41.8585
31
0
0
LINE
8
CUT
10
13.7817
20
41.8585
30
0
11
13.7033
21
41.6514
31
0
0
LINE
8
CUT
10
13.7033
20
41.6514
30
0
11
13.6863
21
41.4924
31
0
0
LINE
8
CUT
10
13.6863
20
32.4924
30
0
11
13.7256
21
32.2528
31
0
0
LINE
8
CUT
10
13.7256
20
32.2528
30
0
11
13.8399
21
32.0376
31
0
0
LINE
8
CUT
10
13.8399
20
32.0376
30
0
11
14.0124
21
31.8737
31
0
0
LINE
8
CUT
10
14.0124
20
31.8737
30
0
11
14.2219
21
31.7737
31
0
0
LINE
8
CUT
10
14.2219
20
31.7737
30
0
11
14.4465
21
31.7425
31
0
0
LINE
8
CUT
10
14.4465
20
31.7425
30
0
11
14.6651
21
31.7781
31
0
0
LINE
8
CUT
10
14.6651
20
31.7781
30
0
11
14.8113
21
31.8429
31
0
0
LINE
8
CUT
10
14.8113
20
31.8429
30
0
11
14.9991
21
31.9967
31
0
0
LINE
8
CUT
10
14.9991
20
31.9967
30
0
11
15.1283
21
32.2033
31
0
0
LINE
8
CUT
10
15.1283
20
32.2033
30
0
11
15.1841
21
32.4347
31
0
0
LINE
8
CUT
10
15.1841
20
32.4347
30
0
11
15.1659
21
32.6661
31
0
0
LINE
8
CUT
10
15.1659
20
32.6661
30
0
11
15.0806
21
32.8762
31
0
0
LINE
8
CUT
10
15.0806
20
32.8762
30
0
11
14.9404
21
33.0477
31
0
0
LINE
8
CUT
10
14.9404
20
33.0477
30
0
11
14.8113
21
33.1419
31
0
0
LINE
8
CUT
10
14.8113
20
33.1419
30
0
11
14.5842
21
33.2277
31
0
0
LINE
8
CUT
10
14.5842
20
33.2277
30
0
11
14.3406
21
33.2363
31
0
0
LINE
8
CUT
10
14.3406
20
33.2363
30
0
11
14.1124
21
33.1688
31
0
0
LINE
8
CUT
10
14.1124
20
33.1688
30
0
11
13.9210
21
33.0374
31
0
0
LINE
8
CUT
10
13.9210
20
33.0374
30
0
11
13.7817
21
32.8585
31
0
0
LINE
8
CUT
10
13.7817
20
32.8585
30
0
11
13.7033
21
32.6514
31
0
0
LINE
8
CUT
10
13.7033
20
32.6514
30
0
11
13.6863
21
32.4924
31
0
0
LINE
8
CUT
10
12.3863
20
36.9924
30
0
11
12.4260
21
36.5908
31
0
0
LINE
8
CUT
10
12.4260
20
36.5908
30
0
11
12.5428
21
36.2068
31
0
0
LINE
8
CUT
10
12.5428
20
36.2068
30
0
11
12.7297
21
35.8566
31
0
0
LINE
8
CUT
10
12.7297
20
35.8566
30
0
11
12.9778
21
35.5518
31
0
0
LINE
8
CUT
10
12.9778
20
35.5518
30
0
11
13.2764
21
35.3020
31
0
0
LINE
8
CUT
10
13.2764
20
35.3020
30
0
11
13.6137
21
35.1147
31
0
0
LINE
8
CUT
10
13.6137
20
35.1147
30
0
11
13.9768
21
34.9946
31
0
0
LINE
8
CUT
10
13.9768
20
34.9946
30
0
11
14.3525
21
34.9441
31
0
0
LINE
8
CUT
10
14.3525
20
34.9441
30
0
11
14.7278
21
34.9632
31
0
0
LINE
8
CUT
10
14.7278
20
34.9632
30
0
11
15.0901
21
35.0495
31
0
0
LINE
8
CUT
10
15.0901
20
35.0495
30
0
11
15.4613
21
35.2170
31
0
0
LINE
8
CUT
10
15.4613
20
35.2170
30
0
11
15.7892
21
35.4522
31
0
0
LINE
8
CUT
10
15.7892
20
35.4522
30
0
11
16.0634
21
35.7454
31
0
0
LINE
8
CUT
10
16.0634
20
35.7454
30
0
11
16.2732
21
36.0823
31
0
0
LINE
8
CUT
10
16.2732
20
36.0823
30
0
11
16.4131
21
36.4496
31
0
0
LINE
8
CUT
10
16.4131
20
36.4496
30
0
11
16.4801
21
36.8331
31
0
0
LINE
8
CUT
10
16.4801
20
36.8331
30
0
11
16.4737
21
37.2189
31
0
0
LINE
8
CUT
10
16.4737
20
37.2189
30
0
11
16.3962
21
37.5934
31
0
0
LINE
8
CUT
10
16.3962
20
37.5934
30
0
11
16.2520
21
37.9440
31
0
0
LINE
8
CUT
10
16.2520
20
37.9440
30
0
11
16.0478
21
38.2595
31
0
0
LINE
8
CUT
10
16.0478
20
38.2595
30
0
11
15.7920
21
38.5301
31
0
0
LINE
8
CUT
10
15.7920
20
38.5301
30
0
11
15.4613
21
38.7677
31
0
0
LINE
8
CUT
10
15.4613
20
38.7677
30
0
11
15.0937
21
38.9341
31
0
0
LINE
8
CUT
10
15.0937
20
38.9341
30
0
11
14.7027
21
39.0250
31
0
0
LINE
8
CUT
10
14.7027
20
39.0250
30
0
11
14.3060
21
39.0382
31
0
0
LINE
8
CUT
10
14.3060
20
39.0382
30
0
11
13.9179
21
38.9758
31
0
0
LINE
8
CUT
10
13.9179
20
38.9758
30
0
11
13.5523
21
38.8420
31
0
0
LINE
8
CUT
10
13.5523
20
38.8420
30
0
11
13.2214
21
38.6436
31
0
0
LINE
8
CUT
10
13.2214
20
38.6436
30
0
11
12.9358
21
38.3892
31
0
0
LINE
8
CUT
10
12.9358
20
38.3892
30
0
11
12.7043
21
38.0891
31
0
0
LINE
8
CUT
10
12.7043
20
38.0891
30
0
11
12.5332
21
37.7545
31
0
0
LINE
8
CUT
10
12.5332
20
37.7545
30
0
11
12.4267
21
37.3976
31
0
0
LINE
8
CUT
10
12.4267
20
37.3976
30
0
11
12.3863
21
36.9924
31
0
0
LINE
8
CUT
10
1.2000
20
39.3481
30
0
11
1.2395
21
39.0427
31
0
0
LINE
8
CUT
10
1.2395
20
39.0427
30
0
11
1.3558
21
38.7567
31
0
0
LINE
8
CUT
10
1.3558
20
38.7567
30
0
11
1.5374
21
38.5139
31
0
0
LINE
8
CUT
10
1.5374
20
38.5139
30
0
11
1.7698
21
38.3269
31
0
0
LINE
8
CUT
10
1.7698
20
38.3269
30
0
11
2.0368
21
38.2044
31
0
0
LINE
8
CUT
10
2.0368
20
38.2044
30
0
11
2.3211
21
38.1507
31
0
0
LINE
8
CUT
10
2.3211
20
38.1507
30
0
11
2.6059
21
38.1659
31
0
0
LINE
8
CUT
10
2.6059
20
38.1659
30
0
11
2.8750
21
38.2461
31
0
0
LINE
8
CUT
10
2.8750
20
38.2461
30
0
11
2.9945
21
38.3057
31
0
0
LINE
8
CUT
10
2.9945
20
38.3057
30
0
11
3.0000
21
38.3089
31
0
0
LINE
8
CUT
10
3.0000
20
38.3089
30
0
11
3.2448
21
38.4959
31
0
0
LINE
8
CUT
10
3.2448
20
38.4959
30
0
11
3.4342
21
38.7395
31
0
0
LINE
8
CUT
10
3.4342
20
38.7395
30
0
11
3.5538
21
39.0182
31
0
0
LINE
8
CUT
10
3.5538
20
39.0182
30
0
11
3.5995
21
39.3130
31
0
0
LINE
8
CUT
10
3.5995
20
39.3130
30
0
11
3.5721
21
39.6054
31
0
0
LINE
8
CUT
10
3.5721
20
39.6054
30
0
11
3.4764
21
39.8785
31
0
0
LINE
8
CUT
10
3.4764
20
39.8785
30
0
11
3.3209
21
40.1175
31
0
0
LINE
8
CUT
10
3.3209
20
40.1175
30
0
11
3.1168
21
40.3105
31
0
0
LINE
8
CUT
10
3.1168
20
40.3105
30
0
11
3.0055
21
40.3842
31
0
0
LINE
8
CUT
10
3.0055
20
40.3842
30
0
11
3.0000
21
40.3874
31
0
0
LINE
8
CUT
10
3.0000
20
40.3874
30
0
11
2.7157
21
40.5059
31
0
0
LINE
8
CUT
10
2.7157
20
40.5059
30
0
11
2.4099
21
40.5481
31
0
0
LINE
8
CUT
10
2.4099
20
40.5481
30
0
11
2.1088
21
40.5123
31
0
0
LINE
8
CUT
10
2.1088
20
40.5123
30
0
11
1.8307
21
40.4045
31
0
0
LINE
8
CUT
10
1.8307
20
40.4045
30
0
11
1.5911
21
40.2345
31
0
0
LINE
8
CUT
10
1.5911
20
40.2345
30
0
11
1.4024
21
40.0151
31
0
0
LINE
8
CUT
10
1.4024
20
40.0151
30
0
11
1.2732
21
39.7609
31
0
0
LINE
8
CUT
10
1.2732
20
39.7609
30
0
11
1.2081
21
39.4877
31
0
0
LINE
8
CUT
10
1.2081
20
39.4877
30
0
11
1.2020
21
39.4169
31
0
0
LINE
8
CUT
10
1.2020
20
39.4169
30
0
11
1.2000
21
39.3481
31
0
0
LINE
8
BEND
10
4.6000
20
42.4696
30
0
11
4.6000
21
36.2266
31
0
0
LINE
8
CUT
10
0.0000
20
42.4696
30
0
11
4.6000
21
42.4696
31
0
0
LINE
8
CUT
10
0.0000
20
36.2266
30
0
11
0.0000
21
42.4696
31
0
0
LINE
8
CUT
10
4.6000
20
36.2266
30
0
11
0.0000
21
36.2266
31
0
0
LINE
8
CUT
10
6.7363
20
43.0470
30
0
11
6.2022
21
42.7613
31
0
0
LINE
8
CUT
10
6.2022
20
42.7613
30
0
11
5.6681
21
42.5512
31
0
0
LINE
8
CUT
10
5.6681
20
42.5512
30
0
11
5.1341
21
42.4488
31
0
0
LINE
8
CUT
10
5.1341
20
42.4488
30
0
11
4.8676
21
42.4436
31
0
0
LINE
8
CUT
10
4.8676
20
42.4436
30
0
11
4.6000
21
42.4696
31
0
0
LINE
8
CUT
10
4.6000
20
36.2266
30
0
11
6.7363
21
36.2266
31
0
0
LINE
8
CUT
10
1.2000
20
21.2266
30
0
11
1.2395
21
20.9211
31
0
0
LINE
8
CUT
10
1.2395
20
20.9211
30
0
11
1.3558
21
20.6352
31
0
0
LINE
8
CUT
10
1.3558
20
20.6352
30
0
11
1.5374
21
20.3924
31
0
0
LINE
8
CUT
10
1.5374
20
20.3924
30
0
11
1.7698
21
20.2054
31
0
0
LINE
8
CUT
10
1.7698
20
20.2054
30
0
11
2.0368
21
20.0829
31
0
0
LINE
8
CUT
10
2.0368
20
20.0829
30
0
11
2.3211
21
20.0292
31
0
0
LINE
8
CUT
10
2.3211
20
20.0292
30
0
11
2.6059
21
20.0444
31
0
0
LINE
8
CUT
10
2.6059
20
20.0444
30
0
11
2.8750
21
20.1246
31
0
0
LINE
8
CUT
10
2.8750
20
20.1246
30
0
11
2.9945
21
20.1842
31
0
0
LINE
8
CUT
10
2.9945
20
20.1842
30
0
11
3.0000
21
20.1874
31
0
0
LINE
8
CUT
10
3.0000
20
20.1874
30
0
11
3.2448
21
20.3743
31
0
0
LINE
8
CUT
10
3.2448
20
20.3743
30
0
11
3.4342
21
20.6180
31
0
0
LINE
8
CUT
10
3.4342
20
20.6180
30
0
11
3.5538
21
20.8967
31
0
0
LINE
8
CUT
10
3.5538
20
20.8967
30
0
11
3.5995
21
21.1914
31
0
0
LINE
8
CUT
10
3.5995
20
21.1914
30
0
11
3.5721
21
21.4839
31
0
0
LINE
8
CUT
10
3.5721
20
21.4839
30
0
11
3.4764
21
21.7570
31
0
0
LINE
8
CUT
10
3.4764
20
21.7570
30
0
11
3.3209
21
21.9960
31
0
0
LINE
8
CUT
10
3.3209
20
21.9960
30
0
11
3.1168
21
22.1890
31
0
0
LINE
8
CUT
10
3.1168
20
22.1890
30
0
11
3.0055
21
22.2627
31
0
0
LINE
8
CUT
10
3.0055
20
22.2627
30
0
11
3.0000
21
22.2658
31
0
0
LINE
8
CUT
10
3.0000
20
22.2658
30
0
11
2.7157
21
22.3843
31
0
0
LINE
8
CUT
10
2.7157
20
22.3843
30
0
11
2.4099
21
22.4266
31
0
0
LINE
8
CUT
10
2.4099
20
22.4266
30
0
11
2.1088
21
22.3907
31
0
0
LINE
8
CUT
10
2.1088
20
22.3907
30
0
11
1.8307
21
22.2830
31
0
0
LINE
8
CUT
10
1.8307
20
22.2830
30
0
11
1.5911
21
22.1130
31
0
0
LINE
8
CUT
10
1.5911
20
22.1130
30
0
11
1.4024
21
21.8936
31
0
0
LINE
8
CUT
10
1.4024
20
21.8936
30
0
11
1.2732
21
21.6394
31
0
0
LINE
8
CUT
10
1.2732
20
21.6394
30
0
11
1.2081
21
21.3662
31
0
0
LINE
8
CUT
10
1.2081
20
21.3662
30
0
11
1.2020
21
21.2954
31
0
0
LINE
8
CUT
10
1.2020
20
21.2954
30
0
11
1.2000
21
21.2266
31
0
0
LINE
8
BEND
10
4.6000
20
24.2266
30
0
11
4.6000
21
18.2266
31
0
0
LINE
8
CUT
10
0.0000
20
24.2266
30
0
11
4.6000
21
24.2266
31
0
0
LINE
8
CUT
10
0.0000
20
18.2266
30
0
11
0.0000
21
24.2266
31
0
0
LINE
8
CUT
10
4.6000
20
18.2266
30
0
11
0.0000
21
18.2266
31
0
0
LINE
8
CUT
10
4.6000
20
24.2266
30
0
11
6.7363
21
24.2266
31
0
0
LINE
8
CUT
10
4.6000
20
18.2266
30
0
11
6.7363
21
18.2266
31
0
0
LINE
8
CUT
10
19.9363
20
50.6680
30
0
11
22.0726
21
50.6680
31
0
0
LINE
8
CUT
10
19.9363
20
27.0799
30
0
11
22.0726
21
27.0799
31
0
0
LINE
8
CUT
10
93.8088
20
25.0766
30
0
11
92.8088
21
25.0766
31
0
0
LINE
8
CUT
10
93.8088
20
35.3766
30
0
11
93.8088
21
25.0766
31
0
0
LINE
8
CUT
10
93.8088
20
35.3766
30
0
11
92.8088
21
35.3766
31
0
0
LINE
8
CUT
10
92.8088
20
36.2266
30
0
11
92.6304
21
36.1873
31
0
0
LINE
8
CUT
10
92.6304
20
36.1873
30
0
11
92.4878
21
36.0801
31
0
0
LINE
8
CUT
10
92.4878
20
36.0801
30
0
11
92.4040
21
35.9310
31
0
0
LINE
8
CUT
10
92.4040
20
35.9310
30
0
11
92.3838
21
35.8016
31
0
0
LINE
8
CUT
10
92.3838
20
35.8016
30
0
11
92.4231
21
35.6232
31
0
0
LINE
8
CUT
10
92.4231
20
35.6232
30
0
11
92.5304
21
35.4805
31
0
0
LINE
8
CUT
10
92.5304
20
35.4805
30
0
11
92.6794
21
35.3968
31
0
0
LINE
8
CUT
10
92.6794
20
35.3968
30
0
11
92.8088
21
35.3766
31
0
0
LINE
8
CUT
10
92.8088
20
36.2266
30
0
11
93.8088
21
36.2266
31
0
0
LINE
8
BEND
10
93.8088
20
43.0470
30
0
11
93.8088
21
36.2266
31
0
0
LINE
8
CUT
10
80.6088
20
50.6680
30
0
11
93.8088
21
43.0470
31
0
0
LINE
8
BEND
10
80.6088
20
50.6680
30
0
11
80.6088
21
27.0799
31
0
0
LINE
8
CUT
10
82.1699
20
18.2266
30
0
11
80.6088
21
27.0799
31
0
0
LINE
8
CUT
10
93.8088
20
18.2266
30
0
11
82.1699
21
18.2266
31
0
0
LINE
8
BEND
10
93.8088
20
24.2266
30
0
11
93.8088
21
18.2266
31
0
0
LINE
8
CUT
10
92.8088
20
24.2266
30
0
11
93.8088
21
24.2266
31
0
0
LINE
8
CUT
10
92.8088
20
25.0766
30
0
11
92.6304
21
25.0373
31
0
0
LINE
8
CUT
10
92.6304
20
25.0373
30
0
11
92.4878
21
24.9301
31
0
0
LINE
8
CUT
10
92.4878
20
24.9301
30
0
11
92.4040
21
24.7810
31
0
0
LINE
8
CUT
10
92.4040
20
24.7810
30
0
11
92.3838
21
24.6516
31
0
0
LINE
8
CUT
10
92.3838
20
24.6516
30
0
11
92.4231
21
24.4732
31
0
0
LINE
8
CUT
10
92.4231
20
24.4732
30
0
11
92.5304
21
24.3305
31
0
0
LINE
8
CUT
10
92.5304
20
24.3305
30
0
11
92.6794
21
24.2468
31
0
0
LINE
8
CUT
10
92.6794
20
24.2468
30
0
11
92.8088
21
24.2266
31
0
0
LINE
8
CUT
10
86.1088
20
40.7424
30
0
11
86.3484
21
40.7817
31
0
0
LINE
8
CUT
10
86.3484
20
40.7817
30
0
11
86.5636
21
40.8960
31
0
0
LINE
8
CUT
10
86.5636
20
40.8960
30
0
11
86.7276
21
41.0685
31
0
0
LINE
8
CUT
10
86.7276
20
41.0685
30
0
11
86.8276
21
41.2780
31
0
0
LINE
8
CUT
10
86.8276
20
41.2780
30
0
11
86.8588
21
41.5026
31
0
0
LINE
8
CUT
10
86.8588
20
41.5026
30
0
11
86.8231
21
41.7212
31
0
0
LINE
8
CUT
10
86.8231
20
41.7212
30
0
11
86.7584
21
41.8674
31
0
0
LINE
8
CUT
10
86.7584
20
41.8674
30
0
11
86.6046
21
42.0552
31
0
0
LINE
8
CUT
10
86.6046
20
42.0552
30
0
11
86.3980
21
42.1844
31
0
0
LINE
8
CUT
10
86.3980
20
42.1844
30
0
11
86.1666
21
42.2402
31
0
0
LINE
8
CUT
10
86.1666
20
42.2402
30
0
11
85.9351
21
42.2220
31
0
0
LINE
8
CUT
10
85.9351
20
42.2220
30
0
11
85.7251
21
42.1368
31
0
0
LINE
8
CUT
10
85.7251
20
42.1368
30
0
11
85.5536
21
41.9966
31
0
0
LINE
8
CUT
10
85.5536
20
41.9966
30
0
11
85.4593
21
41.8674
31
0
0
LINE
8
CUT
10
85.4593
20
41.8674
30
0
11
85.3736
21
41.6403
31
0
0
LINE
8
CUT
10
85.3736
20
41.6403
30
0
11
85.3650
21
41.3968
31
0
0
LINE
8
CUT
10
85.3650
20
41.3968
30
0
11
85.4324
21
41.1685
31
0
0
LINE
8
CUT
10
85.4324
20
41.1685
30
0
11
85.5638
21
40.9772
31
0
0
LINE
8
CUT
10
85.5638
20
40.9772
30
0
11
85.7427
21
40.8378
31
0
0
LINE
8
CUT
10
85.7427
20
40.8378
30
0
11
85.9499
21
40.7594
31
0
0
LINE
8
CUT
10
85.9499
20
40.7594
30
0
11
86.1088
21
40.7424
31
0
0
LINE
8
CUT
10
86.1088
20
31.7424
30
0
11
86.3484
21
31.7817
31
0
0
LINE
8
CUT
10
86.3484
20
31.7817
30
0
11
86.5636
21
31.8960
31
0
0
LINE
8
CUT
10
86.5636
20
31.8960
30
0
11
86.7276
21
32.0685
31
0
0
LINE
8
CUT
10
86.7276
20
32.0685
30
0
11
86.8276
21
32.2780
31
0
0
LINE
8
CUT
10
86.8276
20
32.2780
30
0
11
86.8588
21
32.5026
31
0
0
LINE
8
CUT
10
86.8588
20
32.5026
30
0
11
86.8231
21
32.7212
31
0
0
LINE
8
CUT
10
86.8231
20
32.7212
30
0
11
86.7584
21
32.8674
31
0
0
LINE
8
CUT
10
86.7584
20
32.8674
30
0
11
86.6046
21
33.0552
31
0
0
LINE
8
CUT
10
86.6046
20
33.0552
30
0
11
86.3980
21
33.1844
31
0
0
LINE
8
CUT
10
86.3980
20
33.1844
30
0
11
86.1666
21
33.2402
31
0
0
LINE
8
CUT
10
86.1666
20
33.2402
30
0
11
85.9351
21
33.2220
31
0
0
LINE
8
CUT
10
85.9351
20
33.2220
30
0
11
85.7251
21
33.1368
31
0
0
LINE
8
CUT
10
85.7251
20
33.1368
30
0
11
85.5536
21
32.9966
31
0
0
LINE
8
CUT
10
85.5536
20
32.9966
30
0
11
85.4593
21
32.8674
31
0
0
LINE
8
CUT
10
85.4593
20
32.8674
30
0
11
85.3736
21
32.6403
31
0
0
LINE
8
CUT
10
85.3736
20
32.6403
30
0
11
85.3650
21
32.3968
31
0
0
LINE
8
CUT
10
85.3650
20
32.3968
30
0
11
85.4324
21
32.1685
31
0
0
LINE
8
CUT
10
85.4324
20
32.1685
30
0
11
85.5638
21
31.9772
31
0
0
LINE
8
CUT
10
85.5638
20
31.9772
30
0
11
85.7427
21
31.8378
31
0
0
LINE
8
CUT
10
85.7427
20
31.8378
30
0
11
85.9499
21
31.7594
31
0
0
LINE
8
CUT
10
85.9499
20
31.7594
30
0
11
86.1088
21
31.7424
31
0
0
LINE
8
CUT
10
86.1088
20
34.9424
30
0
11
86.5104
21
34.9821
31
0
0
LINE
8
CUT
10
86.5104
20
34.9821
30
0
11
86.8944
21
35.0989
31
0
0
LINE
8
CUT
10
86.8944
20
35.0989
30
0
11
87.2446
21
35.2858
31
0
0
LINE
8
CUT
10
87.2446
20
35.2858
30
0
11
87.5494
21
35.5339
31
0
0
LINE
8
CUT
10
87.5494
20
35.5339
30
0
11
87.7992
21
35.8326
31
0
0
LINE
8
CUT
10
87.7992
20
35.8326
30
0
11
87.9866
21
36.1698
31
0
0
LINE
8
CUT
10
87.9866
20
36.1698
30
0
11
88.1067
21
36.5329
31
0
0
LINE
8
CUT
10
88.1067
20
36.5329
30
0
11
88.1571
21
36.9087
31
0
0
LINE
8
CUT
10
88.1571
20
36.9087
30
0
11
88.1380
21
37.2840
31
0
0
LINE
8
CUT
10
88.1380
20
37.2840
30
0
11
88.0518
21
37.6462
31
0
0
LINE
8
CUT
10
88.0518
20
37.6462
30
0
11
87.8842
21
38.0174
31
0
0
LINE
8
CUT
10
87.8842
20
38.0174
30
0
11
87.6490
21
38.3453
31
0
0
LINE
8
CUT
10
87.6490
20
38.3453
30
0
11
87.3559
21
38.6195
31
0
0
LINE
8
CUT
10
87.3559
20
38.6195
30
0
11
87.0189
21
38.8293
31
0
0
LINE
8
CUT
10
87.0189
20
38.8293
30
0
11
86.6516
21
38.9692
31
0
0
LINE
8
CUT
10
86.6516
20
38.9692
30
0
11
86.2681
21
39.0362
31
0
0
LINE
8
CUT
10
86.2681
20
39.0362
30
0
11
85.8824
21
39.0298
31
0
0
LINE
8
CUT
10
85.8824
20
39.0298
30
0
11
85.5078
21
38.9523
31
0
0
LINE
8
CUT
10
85.5078
20
38.9523
30
0
11
85.1572
21
38.8081
31
0
0
LINE
8
CUT
10
85.1572
20
38.8081
30
0
11
84.8418
21
38.6039
31
0
0
LINE
8
CUT
10
84.8418
20
38.6039
30
0
11
84.5711
21
38.3481
31
0
0
LINE
8
CUT
10
84.5711
20
38.3481
30
0
11
84.3335
21
38.0174
31
0
0
LINE
8
CUT
10
84.3335
20
38.0174
30
0
11
84.1671
21
37.6498
31
0
0
LINE
8
CUT
10
84.1671
20
37.6498
30
0
11
84.0762
21
37.2588
31
0
0
LINE
8
CUT
10
84.0762
20
37.2588
30
0
11
84.0630
21
36.8621
31
0
0
LINE
8
CUT
10
84.0630
20
36.8621
30
0
11
84.1255
21
36.4741
31
0
0
LINE
8
CUT
10
84.1255
20
36.4741
30
0
11
84.2592
21
36.1084
31
0
0
LINE
8
CUT
10
84.2592
20
36.1084
30
0
11
84.4576
21
35.7775
31
0
0
LINE
8
CUT
10
84.4576
20
35.7775
30
0
11
84.7120
21
35.4920
31
0
0
LINE
8
CUT
10
84.7120
20
35.4920
30
0
11
85.0122
21
35.2604
31
0
0
LINE
8
CUT
10
85.0122
20
35.2604
30
0
11
85.3468
21
35.0893
31
0
0
LINE
8
CUT
10
85.3468
20
35.0893
30
0
11
85.7036
21
34.9828
31
0
0
LINE
8
CUT
10
85.7036
20
34.9828
30
0
11
86.1088
21
34.9424
31
0
0
LINE
8
CUT
10
96.9451
20
39.3481
30
0
11
96.9847
21
39.0427
31
0
0
LINE
8
CUT
10
96.9847
20
39.0427
30
0
11
97.1010
21
38.7567
31
0
0
LINE
8
CUT
10
97.1010
20
38.7567
30
0
11
97.2825
21
38.5139
31
0
0
LINE
8
CUT
10
97.2825
20
38.5139
30
0
11
97.5149
21
38.3269
31
0
0
LINE
8
CUT
10
97.5149
20
38.3269
30
0
11
97.7819
21
38.2044
31
0
0
LINE
8
CUT
10
97.7819
20
38.2044
30
0
11
98.0663
21
38.1507
31
0
0
LINE
8
CUT
10
98.0663
20
38.1507
30
0
11
98.3510
21
38.1659
31
0
0
LINE
8
CUT
10
98.3510
20
38.1659
30
0
11
98.6202
21
38.2461
31
0
0
LINE
8
CUT
10
98.6202
20
38.2461
30
0
11
98.7397
21
38.3057
31
0
0
LINE
8
CUT
10
98.7397
20
38.3057
30
0
11
98.7451
21
38.3089
31
0
0
LINE
8
CUT
10
98.7451
20
38.3089
30
0
11
98.9899
21
38.4959
31
0
0
LINE
8
CUT
10
98.9899
20
38.4959
30
0
11
99.1794
21
38.7395
31
0
0
LINE
8
CUT
10
99.1794
20
38.7395
30
0
11
99.2989
21
39.0182
31
0
0
LINE
8
CUT
10
99.2989
20
39.0182
30
0
11
99.3446
21
39.3130
31
0
0
LINE
8
CUT
10
99.3446
20
39.3130
30
0
11
99.3172
21
39.6054
31
0
0
LINE
8
CUT
10
99.3172
20
39.6054
30
0
11
99.2215
21
39.8785
31
0
0
LINE
8
CUT
10
99.2215
20
39.8785
30
0
11
99.0660
21
40.1175
31
0
0
LINE
8
CUT
10
99.0660
20
40.1175
30
0
11
98.8620
21
40.3105
31
0
0
LINE
8
CUT
10
98.8620
20
40.3105
30
0
11
98.7506
21
40.3842
31
0
0
LINE
8
CUT
10
98.7506
20
40.3842
30
0
11
98.7451
21
40.3874
31
0
0
LINE
8
CUT
10
98.7451
20
40.3874
30
0
11
98.4608
21
40.5059
31
0
0
LINE
8
CUT
10
98.4608
20
40.5059
30
0
11
98.1551
21
40.5481
31
0
0
LINE
8
CUT
10
98.1551
20
40.5481
30
0
11
97.8540
21
40.5123
31
0
0
LINE
8
CUT
10
97.8540
20
40.5123
30
0
11
97.5758
21
40.4045
31
0
0
LINE
8
CUT
10
97.5758
20
40.4045
30
0
11
97.3363
21
40.2345
31
0
0
LINE
8
CUT
10
97.3363
20
40.2345
30
0
11
97.1476
21
40.0151
31
0
0
LINE
8
CUT
10
97.1476
20
40.0151
30
0
11
97.0184
21
39.7609
31
0
0
LINE
8
CUT
10
97.0184
20
39.7609
30
0
11
96.9533
21
39.4877
31
0
0
LINE
8
CUT
10
96.9533
20
39.4877
30
0
11
96.9471
21
39.4169
31
0
0
LINE
8
CUT
10
96.9471
20
39.4169
30
0
11
96.9451
21
39.3481
31
0
0
LINE
8
BEND
10
95.9451
20
36.2266
30
0
11
95.9451
21
42.4696
31
0
0
LINE
8
CUT
10
100.5451
20
36.2266
30
0
11
95.9451
21
36.2266
31
0
0
LINE
8
CUT
10
100.5451
20
42.4696
30
0
11
100.5451
21
36.2266
31
0
0
LINE
8
CUT
10
95.9451
20
42.4696
30
0
11
100.5451
21
42.4696
31
0
0
LINE
8
CUT
10
95.9451
20
36.2266
30
0
11
93.8088
21
36.2266
31
0
0
LINE
8
CUT
10
95.9451
20
42.4696
30
0
11
95.5338
21
42.4425
31
0
0
LINE
8
CUT
10
95.5338
20
42.4425
30
0
11
95.4111
21
42.4488
31
0
0
LINE
8
CUT
10
95.4111
20
42.4488
30
0
11
94.9987
21
42.5176
31
0
0
LINE
8
CUT
10
94.9987
20
42.5176
30
0
11
94.8770
21
42.5512
31
0
0
LINE
8
CUT
10
94.8770
20
42.5512
30
0
11
94.3429
21
42.7613
31
0
0
LINE
8
CUT
10
94.3429
20
42.7613
30
0
11
93.8088
21
43.0470
31
0
0
LINE
8
CUT
10
96.9451
20
21.2266
30
0
11
96.9847
21
20.9211
31
0
0
LINE
8
CUT
10
96.9847
20
20.9211
30
0
11
97.1010
21
20.6352
31
0
0
LINE
8
CUT
10
97.1010
20
20.6352
30
0
11
97.2825
21
20.3924
31
0
0
LINE
8
CUT
10
97.2825
20
20.3924
30
0
11
97.5149
21
20.2054
31
0
0
LINE
8
CUT
10
97.5149
20
20.2054
30
0
11
97.7819
21
20.0829
31
0
0
LINE
8
CUT
10
97.7819
20
20.0829
30
0
11
98.0663
21
20.0292
31
0
0
LINE
8
CUT
10
98.0663
20
20.0292
30
0
11
98.3510
21
20.0444
31
0
0
LINE
8
CUT
10
98.3510
20
20.0444
30
0
11
98.6202
21
20.1246
31
0
0
LINE
8
CUT
10
98.6202
20
20.1246
30
0
11
98.7397
21
20.1842
31
0
0
LINE
8
CUT
10
98.7397
20
20.1842
30
0
11
98.7451
21
20.1874
31
0
0
LINE
8
CUT
10
98.7451
20
20.1874
30
0
11
98.9899
21
20.3743
31
0
0
LINE
8
CUT
10
98.9899
20
20.3743
30
0
11
99.1794
21
20.6180
31
0
0
LINE
8
CUT
10
99.1794
20
20.6180
30
0
11
99.2989
21
20.8967
31
0
0
LINE
8
CUT
10
99.2989
20
20.8967
30
0
11
99.3446
21
21.1914
31
0
0
LINE
8
CUT
10
99.3446
20
21.1914
30
0
11
99.3172
21
21.4839
31
0
0
LINE
8
CUT
10
99.3172
20
21.4839
30
0
11
99.2215
21
21.7570
31
0
0
LINE
8
CUT
10
99.2215
20
21.7570
30
0
11
99.0660
21
21.9960
31
0
0
LINE
8
CUT
10
99.0660
20
21.9960
30
0
11
98.8620
21
22.1890
31
0
0
LINE
8
CUT
10
98.8620
20
22.1890
30
0
11
98.7506
21
22.2627
31
0
0
LINE
8
CUT
10
98.7506
20
22.2627
30
0
11
98.7451
21
22.2658
31
0
0
LINE
8
CUT
10
98.7451
20
22.2658
30
0
11
98.4608
21
22.3843
31
0
0
LINE
8
CUT
10
98.4608
20
22.3843
30
0
11
98.1551
21
22.4266
31
0
0
LINE
8
CUT
10
98.1551
20
22.4266
30
0
11
97.8540
21
22.3907
31
0
0
LINE
8
CUT
10
97.8540
20
22.3907
30
0
11
97.5758
21
22.2830
31
0
0
LINE
8
CUT
10
97.5758
20
22.2830
30
0
11
97.3363
21
22.1130
31
0
0
LINE
8
CUT
10
97.3363
20
22.1130
30
0
11
97.1476
21
21.8936
31
0
0
LINE
8
CUT
10
97.1476
20
21.8936
30
0
11
97.0184
21
21.6394
31
0
0
LINE
8
CUT
10
97.0184
20
21.6394
30
0
11
96.9533
21
21.3662
31
0
0
LINE
8
CUT
10
96.9533
20
21.3662
30
0
11
96.9471
21
21.2954
31
0
0
LINE
8
CUT
10
96.9471
20
21.2954
30
0
11
96.9451
21
21.2266
31
0
0
LINE
8
BEND
10
95.9451
20
18.2266
30
0
11
95.9451
21
24.2266
31
0
0
LINE
8
CUT
10
100.5451
20
18.2266
30
0
11
95.9451
21
18.2266
31
0
0
LINE
8
CUT
10
100.5451
20
24.2266
30
0
11
100.5451
21
18.2266
31
0
0
LINE
8
CUT
10
95.9451
20
24.2266
30
0
11
100.5451
21
24.2266
31
0
0
LINE
8
CUT
10
95.9451
20
18.2266
30
0
11
93.8088
21
18.2266
31
0
0
LINE
8
CUT
10
95.9451
20
24.2266
30
0
11
93.8088
21
24.2266
31
0
0
LINE
8
CUT
10
80.6088
20
27.0799
30
0
11
78.4726
21
27.0799
31
0
0
LINE
8
CUT
10
80.6088
20
50.6680
30
0
11
78.4726
21
50.6680
31
0
0
LINE
8
CUT
10
68.1976
20
126.9061
30
0
11
67.8856
21
126.8666
31
0
0
LINE
8
CUT
10
67.8856
20
126.8666
30
0
11
67.5929
21
126.7501
31
0
0
LINE
8
CUT
10
67.5929
20
126.7501
30
0
11
67.3426
21
126.5680
31
0
0
LINE
8
CUT
10
67.3426
20
126.5680
30
0
11
67.1474
21
126.3340
31
0
0
LINE
8
CUT
10
67.1474
20
126.3340
30
0
11
67.0160
21
126.0640
31
0
0
LINE
8
CUT
10
67.0160
20
126.0640
30
0
11
66.9532
21
125.7748
31
0
0
LINE
8
CUT
10
66.9532
20
125.7748
30
0
11
66.9596
21
125.4831
31
0
0
LINE
8
CUT
10
66.9596
20
125.4831
30
0
11
67.0319
21
125.2047
31
0
0
LINE
8
CUT
10
67.0319
20
125.2047
30
0
11
67.1108
21
125.0386
31
0
0
LINE
8
CUT
10
67.1108
20
125.0386
30
0
11
67.1150
21
125.0311
31
0
0
LINE
8
CUT
10
67.1150
20
125.0311
30
0
11
67.3053
21
124.7807
31
0
0
LINE
8
CUT
10
67.3053
20
124.7807
30
0
11
67.5525
21
124.5854
31
0
0
LINE
8
CUT
10
67.5525
20
124.5854
30
0
11
67.8354
21
124.4597
31
0
0
LINE
8
CUT
10
67.8354
20
124.4597
30
0
11
68.1356
21
124.4077
31
0
0
LINE
8
CUT
10
68.1356
20
124.4077
30
0
11
68.4351
21
124.4289
31
0
0
LINE
8
CUT
10
68.4351
20
124.4289
30
0
11
68.7169
21
124.5191
31
0
0
LINE
8
CUT
10
68.7169
20
124.5191
30
0
11
68.9664
21
124.6705
31
0
0
LINE
8
CUT
10
68.9664
20
124.6705
30
0
11
69.1713
21
124.8723
31
0
0
LINE
8
CUT
10
69.1713
20
124.8723
30
0
11
69.2758
21
125.0237
31
0
0
LINE
8
CUT
10
69.2758
20
125.0237
30
0
11
69.2801
21
125.0311
31
0
0
LINE
8
CUT
10
69.2801
20
125.0311
30
0
11
69.4018
21
125.3210
31
0
0
LINE
8
CUT
10
69.4018
20
125.3210
30
0
11
69.4473
21
125.6328
31
0
0
LINE
8
CUT
10
69.4473
20
125.6328
30
0
11
69.4148
21
125.9406
31
0
0
LINE
8
CUT
10
69.4148
20
125.9406
30
0
11
69.3098
21
126.2267
31
0
0
LINE
8
CUT
10
69.3098
20
126.2267
30
0
11
69.1416
21
126.4754
31
0
0
LINE
8
CUT
10
69.1416
20
126.4754
30
0
11
68.9225
21
126.6744
31
0
0
LINE
8
CUT
10
68.9225
20
126.6744
30
0
11
68.6667
21
126.8147
31
0
0
LINE
8
CUT
10
68.6667
20
126.8147
30
0
11
68.3895
21
126.8913
31
0
0
LINE
8
CUT
10
68.3895
20
126.8913
30
0
11
68.2919
21
126.9026
31
0
0
LINE
8
CUT
10
68.2919
20
126.9026
30
0
11
68.1976
21
126.9061
31
0
0
LINE
8
CUT
10
68.0476
20
122.4561
30
0
11
66.0476
21
122.4561
31
0
0
LINE
8
CUT
10
72.0476
20
126.4561
30
0
11
68.0476
21
122.4561
31
0
0
LINE
8
CUT
10
72.0476
20
131.6561
30
0
11
72.0476
21
126.4561
31
0
0
LINE
8
BEND
10
72.0476
20
131.6561
30
0
11
66.0476
21
131.6561
31
0
0
LINE
8
CUT
10
66.0476
20
122.4561
30
0
11
66.0476
21
131.6561
31
0
0
LINE
8
CUT
10
66.0476
20
131.6561
30
0
11
66.0476
21
133.7924
31
0
0
LINE
8
CUT
10
72.0476
20
131.6561
30
0
11
72.0476
21
133.7924
31
0
0
LINE
8
CUT
10
41.8476
20
126.9061
30
0
11
41.5356
21
126.8666
31
0
0
LINE
8
CUT
10
41.5356
20
126.8666
30
0
11
41.2429
21
126.7501
31
0
0
LINE
8
CUT
10
41.2429
20
126.7501
30
0
11
40.9926
21
126.5680
31
0
0
LINE
8
CUT
10
40.9926
20
126.5680
30
0
11
40.7974
21
126.3340
31
0
0
LINE
8
CUT
10
40.7974
20
126.3340
30
0
11
40.6660
21
126.0640
31
0
0
LINE
8
CUT
10
40.6660
20
126.0640
30
0
11
40.6032
21
125.7748
31
0
0
LINE
8
CUT
10
40.6032
20
125.7748
30
0
11
40.6096
21
125.4831
31
0
0
LINE
8
CUT
10
40.6096
20
125.4831
30
0
11
40.6819
21
125.2047
31
0
0
LINE
8
CUT
10
40.6819
20
125.2047
30
0
11
40.7608
21
125.0386
31
0
0
LINE
8
CUT
10
40.7608
20
125.0386
30
0
11
40.7650
21
125.0311
31
0
0
LINE
8
CUT
10
40.7650
20
125.0311
30
0
11
40.9553
21
124.7807
31
0
0
LINE
8
CUT
10
40.9553
20
124.7807
30
0
11
41.2025
21
124.5854
31
0
0
LINE
8
CUT
10
41.2025
20
124.5854
30
0
11
41.4854
21
124.4597
31
0
0
LINE
8
CUT
10
41.4854
20
124.4597
30
0
11
41.7856
21
124.4077
31
0
0
LINE
8
CUT
10
41.7856
20
124.4077
30
0
11
42.0851
21
124.4289
31
0
0
LINE
8
CUT
10
42.0851
20
124.4289
30
0
11
42.3669
21
124.5191
31
0
0
LINE
8
CUT
10
42.3669
20
124.5191
30
0
11
42.6164
21
124.6705
31
0
0
LINE
8
CUT
10
42.6164
20
124.6705
30
0
11
42.8213
21
124.8723
31
0
0
LINE
8
CUT
10
42.8213
20
124.8723
30
0
11
42.9258
21
125.0237
31
0
0
LINE
8
CUT
10
42.9258
20
125.0237
30
0
11
42.9301
21
125.0311
31
0
0
LINE
8
CUT
10
42.9301
20
125.0311
30
0
11
43.0518
21
125.3210
31
0
0
LINE
8
CUT
10
43.0518
20
125.3210
30
0
11
43.0973
21
125.6328
31
0
0
LINE
8
CUT
10
43.0973
20
125.6328
30
0
11
43.0648
21
125.9406
31
0
0
LINE
8
CUT
10
43.0648
20
125.9406
30
0
11
42.9598
21
126.2267
31
0
0
LINE
8
CUT
10
42.9598
20
126.2267
30
0
11
42.7916
21
126.4754
31
0
0
LINE
8
CUT
10
42.7916
20
126.4754
30
0
11
42.5725
21
126.6744
31
0
0
LINE
8
CUT
10
42.5725
20
126.6744
30
0
11
42.3167
21
126.8147
31
0
0
LINE
8
CUT
10
42.3167
20
126.8147
30
0
11
42.0395
21
126.8913
31
0
0
LINE
8
CUT
10
42.0395
20
126.8913
30
0
11
41.9419
21
126.9026
31
0
0
LINE
8
CUT
10
41.9419
20
126.9026
30
0
11
41.8476
21
126.9061
31
0
0
LINE
8
CUT
10
37.8226
20
126.4561
30
0
11
37.8226
21
131.6561
31
0
0
LINE
8
CUT
10
41.8226
20
122.4561
30
0
11
37.8226
21
126.4561
31
0
0
LINE
8
CUT
10
43.8226
20
122.4561
30
0
11
41.8226
21
122.4561
31
0
0
LINE
8
CUT
10
43.8226
20
131.6561
30
0
11
43.8226
21
122.4561
31
0
0
LINE
8
BEND
10
37.8226
20
131.6561
30
0
11
43.8226
21
131.6561
31
0
0
LINE
8
CUT
10
37.8226
20
131.6561
30
0
11
37.8226
21
133.7924
31
0
0
LINE
8
CUT
10
43.8226
20
131.6561
30
0
11
43.8226
21
133.7924
31
0
0
ENDSEC
0
EOF
